<?xml version="1.0" encoding="UTF-8"?>
<svg id="Layer_1" xmlns="http://www.w3.org/2000/svg" version="1.1" viewBox="0 0 800 800">
  <!-- Generator: Adobe Illustrator 29.4.0, SVG Export Plug-In . SVG Version: 2.1.0 Build 152)  -->
  <defs>
    <style>
      .st0 {
        fill: none;
        stroke: #fff;
        stroke-linecap: round;
        stroke-linejoin: round;
        stroke-width: 66.7px;
      }
    </style>
  </defs>
  <path class="st0" d="M400,346.7v320M400,346.7c0-74.7,0-112-14.5-140.5-12.8-25.1-33.2-45.5-58.3-58.3-28.5-14.5-65.9-14.5-140.5-14.5h-33.3c-18.7,0-28,0-35.1,3.6-6.3,3.2-11.4,8.3-14.6,14.6-3.6,7.1-3.6,16.5-3.6,35.1v360c0,18.7,0,28,3.6,35.1,3.2,6.3,8.3,11.4,14.6,14.6,7.1,3.6,16.5,3.6,35.1,3.6h98.2c18,0,27,0,35.7,1.6,7.7,1.4,15.3,3.7,22.5,6.8,8.1,3.5,15.6,8.5,30.6,18.5l59.7,39.8M400,346.7c0-74.7,0-112,14.5-140.5,12.8-25.1,33.2-45.5,58.3-58.3,28.5-14.5,65.9-14.5,140.5-14.5h33.3c18.7,0,28,0,35.1,3.6,6.3,3.2,11.4,8.3,14.6,14.6,3.6,7.1,3.6,16.5,3.6,35.1v360c0,18.7,0,28-3.6,35.1-3.2,6.3-8.3,11.4-14.6,14.6-7.1,3.6-16.5,3.6-35.1,3.6h-98.2c-18,0-27,0-35.7,1.6-7.7,1.4-15.3,3.7-22.5,6.8-8.1,3.5-15.6,8.5-30.6,18.5l-59.7,39.8"/>
</svg>