<?xml version="1.0" encoding="UTF-8"?>
<svg id="_x32_" xmlns="http://www.w3.org/2000/svg" version="1.1" viewBox="0 0 800 800">
  <!-- Generator: Adobe Illustrator 29.4.0, SVG Export Plug-In . SVG Version: 2.1.0 Build 152)  -->
  <defs>
    <style>
      .st0 {
        fill: #0059ff;
      }
    </style>
  </defs>
  <path class="st0" d="M603.5,123.4l-77.9,77.9,7.2,7.5c-5.2,4.2-10.4,8.2-15.5,11.8-8.2,5.8-16,10.5-21.4,12.7-.3.2-1.8.6-4.7.5-4.6,0-12.3-1.1-21.7-2.6-9.4-1.4-20.7-3-33.5-3-11.1,0-23.4,1.3-36.2,4.9-12.9-3.5-25.1-4.9-36.2-4.8-12.7,0-24,1.6-33.5,3-9.4,1.4-17.1,2.6-21.6,2.6-2.9,0-4.3-.4-4.6-.5-5.7-2.3-14.2-7.5-23.1-13.9-4.6-3.3-9.2-6.9-13.8-10.7l7.2-7.5-77.9-77.9L0,326.9l77.9,77.9,22.8-23.6,50.3,43.9c1.4,8.4,4.1,16.4,7.1,23.9,2,4.8,4.2,9.4,6.4,13.8-4.9,8.1-7.5,17.3-7.5,26.6,0,9.3,2.5,18.7,7.7,27.1,7.9,12.8,20.7,20.8,34.4,23.3,0,9.1,2.6,18.3,7.7,26.6,9.7,15.6,26.5,24.3,43.7,24.3.7,0,1.3-.1,2-.1.9,7.3,3.3,14.5,7.3,21.1,9.7,15.6,26.6,24.3,43.7,24.3,1.7,0,3.4-.2,5.1-.3.8,6.5,3,13.1,6.7,19,8.9,14.2,24.2,22.1,39.8,22.1,8.4,0,17-2.3,24.7-7l23.4-14.5c4.6,3,9.4,5.6,14.5,7.7,9.4,4,19.6,6.4,30.3,6.4,11.6,0,23.9-3.1,34.5-10.6,6.9-4.8,12.7-11.4,17.5-19.1.7,0,1.3.2,2.1.2,4.8,0,10.2-.7,15.4-2.4,5.3-1.6,10.6-4,16.2-7.2,13.4-7.5,21.4-18.7,25.3-28.2.9-2.1,1.5-4,2-5.9,3.2-1,6.3-2.3,9.1-3.9,10.4-6,17.1-15,21.3-24.1,4.2-9.2,6-18.7,6-27.9,0-.9-.1-1.8-.2-2.7,6.8-2.8,12.9-6.6,18-11.2,5.3-4.7,9.8-10.1,13.1-16.2,3.3-6.1,5.5-13.2,5.5-20.9,0-5-1-10.3-3.3-15.3-.7-1.6-1.8-3-2.7-4.5,4-7.1,8-15.1,11.3-23.7,2.5-6.5,4.6-13.4,5.8-20.5l52.5-45.8,24.6,25.5,77.9-77.9-196.5-203.5ZM216.8,500.7l-.9.6c-2.3,1.5-4.8,2.1-7.4,2.1-4.7,0-9.2-2.3-11.9-6.6-1.4-2.3-2.1-4.8-2.1-7.3,0-4.7,2.3-9.2,6.6-11.9l30.9-19.2c2.3-1.5,4.8-2.1,7.3-2.1,4.7,0,9.2,2.3,11.9,6.6l15.9-9.9-15.9,9.9c1.4,2.3,2.1,4.8,2.1,7.3,0,3.3-1.2,6.5-3.3,9l-26.5,16.5c-2.4,1.5-4.6,3.2-6.7,5ZM258,551.1c-2.3,1.4-4.8,2.1-7.3,2.1-4.7,0-9.2-2.3-11.9-6.6-1.4-2.3-2.1-4.8-2.1-7.4,0-3.3,1.2-6.4,3.3-8.9l26.5-16.5c2.4-1.5,4.6-3.2,6.6-5l1-.6c2.3-1.5,4.8-2.1,7.3-2.1,4.8,0,9.2,2.3,11.9,6.6,1.4,2.3,2.1,4.8,2.1,7.3,0,4.7-2.3,9.2-6.6,11.9l-30.8,19.1ZM341.8,577.2l-30.8,19.2c-2.3,1.5-4.8,2.1-7.3,2.1-4.7,0-9.2-2.3-11.9-6.6-1.4-2.4-2.1-4.8-2.1-7.4,0-4.7,2.3-9.2,6.6-11.9l30.9-19.2c2.3-1.5,4.8-2.1,7.3-2.1,4.7,0,9.2,2.3,11.9,6.6,1.4,2.4,2.1,4.8,2.1,7.3,0,4.7-2.3,9.2-6.6,11.9ZM389.6,608.5c1,1.6,1.4,3.2,1.4,4.9,0,3.2-1.5,6.2-4.4,8l-26.5,16.4c-1.6,1-3.2,1.4-4.9,1.4-3.2,0-6.2-1.6-8-4.4-1-1.6-1.4-3.2-1.4-4.9,0-3.2,1.6-6.2,4.4-8h0l26.5-16.5c1.6-1,3.2-1.4,4.9-1.4,3.2,0,6.2,1.5,8,4.4l15.9-9.9-15.9,9.9ZM595.4,492.3c-1.4,2.6-4.5,6.1-8.4,8.5-3.9,2.4-8.5,3.8-12.9,3.8-1.6,0-3,.3-4.5.6-2.7-.6-5.3-1.4-8-2.4-8.1-3.2-15.8-8.3-21.1-12.7-2.7-2.2-4.8-4.1-6.3-5.5l-1.6-1.6-.3-.4h0c0,0,0,0,0,0-5.2-5.7-14.1-6.1-19.8-.8-5.7,5.2-6.1,14.1-.9,19.8.5.5,7.5,8.2,19.1,16.1,5.8,4,12.7,8,20.7,11.1,1.8.7,3.8,1.4,5.7,2,.5,1.2,1.2,2.4,2.1,3.5h0c.1.1.9,2.5.8,5.6,0,5.2-1.8,11.9-4.5,15.7-1.3,1.9-2.7,3.1-4,3.9-1.3.7-2.7,1.2-5.2,1.3h-.9c-.5,0-1,0-1.6,0h0c-12.2,0-23.5-5.2-31.9-10.9-4.2-2.8-7.5-5.7-9.8-7.8-1.1-1-2-1.9-2.5-2.4l-.5-.6h0c0-.1,0-.1,0-.1-5.1-5.8-13.9-6.5-19.8-1.4-5.9,5.1-6.5,13.9-1.4,19.8h0c.5.6,7,8.1,18.3,15.7,7.4,5,17.1,10.2,28.6,13.2-.1.3-.2.7-.4,1-1.5,3.3-3.6,6.8-9.3,10.1-3.9,2.2-6.6,3.4-8.6,4-2,.6-3,.7-4.4.7-1.8,0-4.5-.4-9.1-1.3-.8-.2-1.6-.2-2.5-.3-.3-.1-.6-.2-.9-.4-4.7-2.2-10.3-6.1-14.5-9.5-2.1-1.7-3.9-3.2-5.1-4.3l-1.4-1.2-.3-.3h0c-5.6-5.4-14.5-5.2-19.9.4-5.3,5.6-5.1,14.5.5,19.8.3.3,6.2,5.9,14.5,11.9,1.5,1,3.1,2.1,4.7,3.1-2.3,3.6-4.7,6.2-7,7.8-3.7,2.6-7.8,3.8-13,3.8-4.7,0-10.2-1.1-15.7-3.5-1.8-.8-3.6-1.8-5.4-2.8,1.1-3.9,1.6-8,1.6-12.1,0-8.4-2.3-17-7.1-24.7-8.1-13-21.5-20.6-35.6-21.8,0-.5,0-1,0-1.5,0-9.2-2.5-18.7-7.7-27.1h0c-9.7-15.7-26.6-24.3-43.7-24.3-.7,0-1.3.1-2,.1-.9-7.3-3.3-14.5-7.3-21.1h0c-7.9-12.8-20.7-20.8-34.4-23.3,0-9.1-2.6-18.3-7.7-26.6h0c-9.7-15.6-26.6-24.3-43.7-24.3-9.3,0-18.7,2.5-27.1,7.7l-18,11.2c-.4-1-1-2-1.4-2.9-3.1-7.5-5.1-14.9-5.3-20l-.4-7.9-60.3-52.6,114.3-118.4c5.8,4.8,11.8,9.5,18,14,10.2,7.3,20.3,13.8,30.6,18.2,6.6,2.7,13.1,3.4,19,3.4,9.5,0,18.2-1.7,27.2-3,.6-.1,1.2-.2,1.8-.2-12.5,10.7-23.3,22.2-32.5,33-7.7,9.1-14.3,17.6-19.4,24.6-5.1,6.9-9,12.6-10.8,14.8-8.5,11.1-12.2,24.3-12.2,37.6,0,12.4,3.3,25.2,11.8,36.1,4.2,5.4,9.9,10.1,16.6,13.3,6.7,3.2,14.4,4.9,22.4,4.9,9.9,0,20.4-2.4,31.4-7.1,34.7-14.7,70.4-24.4,97.3-30.5,13.4-3,24.7-5.1,32.5-6.4,1.5-.2,2.7-.4,3.9-.6l117.6,101.4h0s0,0,0,0c0,.4-.2,1.4-1,3ZM609,406.9l-.4,7.9c-.2,4.5-1.8,10.9-4.3,17.5-1.3,3.5-2.9,6.9-4.6,10.4l-103-88.8c-4-3.5-9.3-5.1-14.6-4.4-.9.2-76.5,9.7-151.6,41.3-7.5,3.2-13.1,4.1-16.9,4.1-3.1,0-4.9-.5-6.3-1.2-2-1-3.4-2.4-4.9-5-1.4-2.6-2.3-6.5-2.3-10.5,0-5.8,2-11.8,4.3-14.6,2.9-3.8,6.5-8.9,11.4-15.5,7.3-9.9,17.2-22.6,29-35,11.8-12.4,25.4-24.4,39.8-32.9,19.4-11.4,35.9-14.3,51.6-14.3,9.6,0,18.9,1.2,27.9,2.6,9,1.3,17.8,2.9,27.2,3,5.9,0,12.3-.7,18.9-3.4h0c10.3-4.4,20.4-10.9,30.6-18.2,6.1-4.4,12.1-9.2,18-14l112.6,116.6-62.4,54.5Z"/>
</svg>