<?xml version="1.0" encoding="UTF-8"?>
<svg xmlns="http://www.w3.org/2000/svg" baseProfile="tiny" version="1.2" viewBox="0 0 513 357.1">
  <!-- Generator: Adobe Illustrator 29.3.1, SVG Export Plug-In . SVG Version: 2.1.0 Build 151)  -->
  <g id="Layer_1" image-rendering="optimizeQuality" shape-rendering="geometricPrecision" text-rendering="geometricPrecision">
    <g>
      <path d="M513,2.5v352.1c-3.5,1.4-7.2,2.2-11.2,2.2H29.5c-16,0-29.2-12.7-29.2-28.2V28.5C.3,13,13.4.3,29.5.3h472.3c4,0,7.8.8,11.2,2.2Z" fill="#fff"/>
      <rect x=".3" y="0" width="256.2" height="356.8" fill="#063"/>
      <path d="M278,249.8c-7.5,0-14.7-1.2-21.5-3.3-28.8-9.1-49.8-36.1-49.8-68s20.9-58.9,49.8-68c6.8-2.2,3-3.3,21.5-3.3,21.6,0,42.1,9.8,55.6,26.7-15.9-27.6-45.3-44.5-77.2-44.5-49.2,0-89.1,39.9-89.1,89.1s39.9,89.1,89.1,89.1,61.3-17,77.2-44.5c-13.5,16.9-34,26.7-55.7,26.7ZM306.3,168.5v-32.4l-19,26.2-30.8-10,19,26.2-19,26.2,30.8-10,19,26.2v-32.4l30.8-10-30.8-10Z" fill="#d21034"/>
    </g>
  </g>
</svg>