<?xml version="1.0" encoding="UTF-8"?>
<svg id="Layer_1" xmlns="http://www.w3.org/2000/svg" baseProfile="tiny" version="1.2" xmlns:xlink="http://www.w3.org/1999/xlink" viewBox="0 0 420 270">
  <!-- Generator: Adobe Illustrator 29.3.1, SVG Export Plug-In . SVG Version: 2.1.0 Build 151)  -->
  <defs>
    <linearGradient id="New_Gradient_Swatch_4" data-name="New Gradient Swatch 4" x1="64.5" y1="160.4" x2="76.6" y2="160.4" gradientUnits="userSpaceOnUse">
      <stop offset="0" stop-color="#aea47f"/>
      <stop offset=".5" stop-color="#d6ba63"/>
      <stop offset="1" stop-color="#97804a"/>
    </linearGradient>
    <linearGradient id="New_Gradient_Swatch_41" data-name="New Gradient Swatch 4" x1="82.2" x2="94.2" xlink:href="#New_Gradient_Swatch_4"/>
    <linearGradient id="New_Gradient_Swatch_42" data-name="New Gradient Swatch 4" x1="99.9" x2="111.9" xlink:href="#New_Gradient_Swatch_4"/>
    <linearGradient id="New_Gradient_Swatch_43" data-name="New Gradient Swatch 4" x1="117.5" x2="129.5" xlink:href="#New_Gradient_Swatch_4"/>
    <linearGradient id="New_Gradient_Swatch_44" data-name="New Gradient Swatch 4" x1="152.8" x2="164.9" xlink:href="#New_Gradient_Swatch_4"/>
    <linearGradient id="New_Gradient_Swatch_45" data-name="New Gradient Swatch 4" x1="170.5" x2="182.5" xlink:href="#New_Gradient_Swatch_4"/>
    <linearGradient id="New_Gradient_Swatch_46" data-name="New Gradient Swatch 4" x1="188.2" x2="200.2" xlink:href="#New_Gradient_Swatch_4"/>
    <linearGradient id="New_Gradient_Swatch_47" data-name="New Gradient Swatch 4" x1="205.8" x2="217.8" xlink:href="#New_Gradient_Swatch_4"/>
    <linearGradient id="New_Gradient_Swatch_48" data-name="New Gradient Swatch 4" x1="241.1" x2="253.2" xlink:href="#New_Gradient_Swatch_4"/>
    <linearGradient id="New_Gradient_Swatch_49" data-name="New Gradient Swatch 4" x1="258.8" x2="270.8" xlink:href="#New_Gradient_Swatch_4"/>
    <linearGradient id="New_Gradient_Swatch_410" data-name="New Gradient Swatch 4" x1="276.5" x2="288.5" xlink:href="#New_Gradient_Swatch_4"/>
    <linearGradient id="New_Gradient_Swatch_411" data-name="New Gradient Swatch 4" x1="294.1" x2="306.1" xlink:href="#New_Gradient_Swatch_4"/>
    <linearGradient id="New_Gradient_Swatch_412" data-name="New Gradient Swatch 4" x1="48.7" y1="199.6" x2="56.2" y2="199.6" xlink:href="#New_Gradient_Swatch_4"/>
    <linearGradient id="New_Gradient_Swatch_413" data-name="New Gradient Swatch 4" x1="59.7" y1="199.7" x2="67.4" y2="199.7" xlink:href="#New_Gradient_Swatch_4"/>
    <linearGradient id="New_Gradient_Swatch_414" data-name="New Gradient Swatch 4" x1="71.1" y1="199.7" x2="78.6" y2="199.7" xlink:href="#New_Gradient_Swatch_4"/>
    <linearGradient id="New_Gradient_Swatch_415" data-name="New Gradient Swatch 4" x1="81.9" y1="199.7" x2="89.5" y2="199.7" xlink:href="#New_Gradient_Swatch_4"/>
    <linearGradient id="New_Gradient_Swatch_416" data-name="New Gradient Swatch 4" x1="93.1" y1="199.7" x2="100.6" y2="199.7" xlink:href="#New_Gradient_Swatch_4"/>
    <linearGradient id="linear-gradient" x1="124" y1="235" x2="271.4" y2="235" gradientUnits="userSpaceOnUse">
      <stop offset="0" stop-color="#aea47f"/>
      <stop offset=".5" stop-color="#d6ba63"/>
      <stop offset="1" stop-color="#97804a"/>
    </linearGradient>
    <linearGradient id="linear-gradient1" y1="235" y2="235" xlink:href="#linear-gradient"/>
    <linearGradient id="linear-gradient2" y1="235" y2="235" xlink:href="#linear-gradient"/>
    <linearGradient id="linear-gradient3" y1="235" y2="235" xlink:href="#linear-gradient"/>
    <linearGradient id="linear-gradient4" y1="235" y2="235" xlink:href="#linear-gradient"/>
    <linearGradient id="linear-gradient5" y1="235" y2="235" xlink:href="#linear-gradient"/>
    <linearGradient id="linear-gradient6" y1="235" y2="235" xlink:href="#linear-gradient"/>
    <linearGradient id="linear-gradient7" y1="235" y2="235" xlink:href="#linear-gradient"/>
    <linearGradient id="New_Gradient_Swatch_417" data-name="New Gradient Swatch 4" x1="324" y1="160.7" x2="336" y2="160.7" xlink:href="#New_Gradient_Swatch_4"/>
    <linearGradient id="New_Gradient_Swatch_418" data-name="New Gradient Swatch 4" x1="341.6" y1="160.7" x2="353.7" y2="160.7" xlink:href="#New_Gradient_Swatch_4"/>
    <linearGradient id="New_Gradient_Swatch_419" data-name="New Gradient Swatch 4" x1="359.6" y1="160.7" x2="371.6" y2="160.7" xlink:href="#New_Gradient_Swatch_4"/>
    <linearGradient id="New_Gradient_Swatch_420" data-name="New Gradient Swatch 4" x1="377.1" y1="160.6" x2="389" y2="160.6" xlink:href="#New_Gradient_Swatch_4"/>
  </defs>
  <image width="1715" height="1092" transform="translate(4.3 4) scale(.2)" xlink:href="../../../../../../../../Downloads/CNEP 2.png"/>
  <g>
    <path d="M136.3,219.3h-7.2v15.2c0,.3,0,.5.3.7.2.2.4.3.7.3s.5,0,.7-.3.3-.4.3-.7v-7.8h1.5l4.8,8.3c.2.4.5.5.9.5.3,0,.5,0,.7-.3.2-.2.3-.4.3-.7s0-.4-.2-.6l-4.2-7.2h1.3c.8,0,1.6-.3,2.2-.9.6-.6.9-1.3.9-2.2v-1.2c0-.8-.3-1.6-.9-2.2-.6-.6-1.3-.9-2.2-.9ZM137.3,223.6c0,.3,0,.5-.3.7s-.4.3-.7.3h-5.2v-3.2h5.2c.3,0,.5,0,.7.3s.3.4.3.7v1.2Z" fill="#010101"/>
    <path d="M153.5,221.3c.3,0,.5-.1.7-.3.2-.2.3-.5.3-.7s-.1-.5-.3-.7-.4-.3-.7-.3h-8.3c-.3,0-.5.1-.7.3-.2.2-.3.5-.3.7s0,.5.3.7c.2.2.4.3.7.3h3.1v12.1h-3.1c-.3,0-.5,0-.7.3-.2.2-.3.4-.3.7s0,.5.3.7c.2.2.4.3.7.3h8.3c.3,0,.5,0,.7-.3.2-.2.3-.4.3-.7s0-.5-.3-.7-.4-.3-.7-.3h-3.1v-12.1h3.1Z" fill="#010101"/>
    <path d="M168.7,219.3c-.3,0-.5.1-.7.3-.2.2-.3.5-.3.7v12.1l-.6,1h-.9l-.6-1v-6.8c0-.3,0-.5-.3-.7s-.4-.3-.7-.3-.5,0-.7.3c-.2.2-.3.4-.3.7v6.8l-.6,1h-.9l-.6-1v-12.1c0-.3,0-.5-.3-.7-.2-.2-.4-.3-.7-.3s-.5.1-.7.3c-.2.2-.3.5-.3.7v12.4c0,.2,0,.4.2.7l.9,1.5c.2.4.6.6,1.1.6h1.8c.6,0,.9-.3,1.1-.8.2.6.6.8,1.2.8h1.9c.4,0,.7-.2.9-.5l1-1.6c.2-.3.3-.5.3-.6v-12.4c0-.3-.1-.5-.3-.7-.2-.2-.4-.3-.7-.3Z" fill="#010101"/>
    <path d="M180.8,219.9c-.1-.4-.5-.6-1-.6s-.9.3-1,.8l-4.1,14c0,.1,0,.3,0,.4,0,.3,0,.5.3.7s.4.3.7.3.4,0,.6-.2c.2-.1.3-.2.3-.4l.9-3h4.7l.8,2.8c.1.5.5.7,1,.7s.5,0,.7-.3c.2-.2.3-.4.3-.7s0-.2,0-.3l-4.1-14.2ZM178.1,229.9l1.8-5.9,1.7,5.9h-3.5Z" fill="#010101"/>
    <path d="M195,222.9l-2.5-3.7h-2.7v15.2c0,.3,0,.5.3.7.2.2.4.3.7.3s.5,0,.7-.3.3-.4.3-.7v-12.4l2.1,3v.5c0,.3,0,.5.3.7.2.2.4.3.7.3s.5-.1.7-.3c.2-.2.3-.4.3-.7v-.6l2.1-2.9v12.3c0,.3.1.5.3.7.2.2.4.3.7.3s.5,0,.7-.3.3-.4.3-.7v-15.2h-2.6l-2.6,3.7Z" fill="#010101"/>
    <path d="M229.6,219.3c-.3,0-.5.1-.7.3s-.3.5-.3.7v12.1c0,.3,0,.5-.3.7-.2.2-.4.3-.7.3h-4.2c-.3,0-.5,0-.7-.3s-.3-.4-.3-.7v-12.1c0-.3-.1-.5-.3-.7-.2-.2-.4-.3-.7-.3s-.5.1-.7.3c-.2.2-.3.5-.3.7v12.1c0,.8.3,1.6.9,2.2.6.6,1.3.9,2.2.9h4.2c.8,0,1.6-.3,2.2-.9.6-.6.9-1.3.9-2.2v-12.1c0-.3,0-.5-.3-.7s-.4-.3-.7-.3Z" fill="#010101"/>
    <path d="M237.9,221.4h5.1c.4,0,.7.2.8.6.1.4.2.7.4.9s.4.2.7.2.5-.1.7-.3c.2-.2.3-.5.3-.7,0-.8-.3-1.4-.9-2-.6-.5-1.2-.8-1.9-.8h-5.3c-.6,0-1.2.2-1.6.7-.5.5-.7,1-.7,1.7s.2,1,.5,1.5l7.6,9.7c.1.1.2.2.2.3,0,.2-.1.3-.3.3h-5.1c-.2,0-.4,0-.6-.2s-.2-.3-.2-.5,0-.5-.3-.7-.4-.3-.7-.3c-.7,0-1.1.4-1.1,1.1s.3,1.3.8,1.8c.5.6,1.2.8,1.9.8h5.5c.5,0,1-.2,1.5-.7.4-.5.7-1,.7-1.6s-.2-1-.6-1.5l-7.6-9.7c-.1-.1-.2-.2-.1-.3,0-.2.1-.2.4-.2Z" fill="#010101"/>
    <path d="M260,221.3c.3,0,.5-.1.7-.3.2-.2.3-.4.3-.7s-.1-.5-.3-.7-.5-.3-.7-.3h-9.3v16.2h9.3c.3,0,.5,0,.7-.3.2-.2.3-.4.3-.7s-.1-.5-.3-.7c-.2-.2-.4-.3-.7-.3h-7.3v-5h3.1c.3,0,.5-.1.7-.3s.3-.5.3-.7-.1-.5-.3-.7c-.2-.2-.4-.3-.7-.3h-3.1v-5h7.2Z" fill="#010101"/>
    <path d="M273.2,219.3h-7.2v15.2c0,.3,0,.5.3.7.2.2.4.3.7.3s.5,0,.7-.3c.2-.2.3-.4.3-.7v-7.8h1.5l4.8,8.3c.2.4.5.5.9.5.3,0,.5,0,.7-.3.2-.2.3-.4.3-.7s0-.4-.2-.6l-4.2-7.2h1.3c.8,0,1.6-.3,2.2-.9.6-.6.9-1.3.9-2.2v-1.2c0-.8-.3-1.6-.9-2.2-.6-.6-1.3-.9-2.2-.9ZM274.2,223.6c0,.3,0,.5-.3.7s-.4.3-.7.3h-5.2v-3.2h5.2c.3,0,.5,0,.7.3s.3.4.3.7v1.2Z" fill="#010101"/>
    <path d="M323.9,187.3h-5.6c-.5,0-.9.2-1.2.5-.3.3-.5.8-.5,1.2v10.8c0,.5.2.9.5,1.2.3.3.7.5,1.2.5h5.6c.5,0,.9-.2,1.2-.5s.5-.8.5-1.2v-10.8c0-.5-.2-.9-.5-1.2s-.7-.5-1.2-.5ZM323.9,199.7h-5.5v-10.6h5.5v10.6Z" fill="#010101"/>
    <path d="M337.2,187.3h-6.4c-.3,0-.5,0-.6.3-.2.2-.3.4-.3.6s0,.5.3.6.4.3.6.3h6.4v4.4h-5.5c-.5,0-.9.2-1.3.5-.4.4-.5.8-.5,1.3v6.2h8.2c.2,0,.5,0,.6-.3.2-.2.3-.4.3-.6s0-.5-.3-.6c-.2-.2-.4-.3-.6-.3h-6.4v-4.4h5.5c.5,0,.9-.2,1.3-.5.4-.4.5-.8.5-1.3v-4.4c0-.5-.2-.9-.5-1.3-.4-.4-.8-.5-1.3-.5Z" fill="#010101"/>
    <path d="M351.6,187.3c-.3,0-.4,0-.6.3l-7.3,12.4c-.1.3-.2.5-.2.7s.1.5.3.6c.2.2.4.2.7.2s.4,0,.5-.3l7.3-12.4c.2-.3.2-.5.2-.7s-.1-.5-.3-.6c-.2-.2-.4-.2-.6-.2Z" fill="#010101"/>
    <path d="M363.9,187.3h-6.4c-.3,0-.5,0-.6.3-.2.2-.3.4-.3.6s0,.5.3.6c.2.2.4.3.6.3h6.4v4.4h-5.5c-.5,0-.9.2-1.3.5s-.5.8-.5,1.3v6.2h8.2c.2,0,.5,0,.6-.3.2-.2.3-.4.3-.6s0-.5-.3-.6c-.2-.2-.4-.3-.6-.3h-6.4v-4.4h5.5c.5,0,.9-.2,1.3-.5.4-.4.5-.8.5-1.3v-4.4c0-.5-.2-.9-.5-1.3-.4-.4-.8-.5-1.3-.5Z" fill="#010101"/>
    <path d="M378.7,195.3c-.2-.2-.4-.3-.6-.3h-6.4v-6c.3,0,.5,0,.6-.3.2-.2.3-.4.3-.6s0-.5-.3-.6c-.2-.2-.4-.3-.6-.3h-.9c-.3,0-.5,0-.7.3-.2.2-.3.4-.3.6v12.4c0,.2,0,.5.3.6.2.2.4.3.6.3h7.2c.3,0,.5,0,.6-.3.2-.2.3-.4.3-.6v-4.7c0-.3,0-.5-.3-.6ZM377.2,199.7h-5.5v-2.9h5.5v2.9Z" fill="#010101"/>
    <path d="M63.9,156.4c0-.3-.1-.6-.3-.8s-.5-.3-.8-.3-.6.1-.9.3l-2.7,2.3v-3.4c0-.3-.1-.6-.3-.8-.2-.2-.5-.3-.8-.3s-.6.1-.8.3-.3.5-.3.8v3.4l-2.6-2.3c-.2-.2-.5-.3-.8-.3s-.6.1-.8.3c-.2.2-.3.5-.3.8s.1.6.4.8l3.7,3.2-3.7,3.1c-.2.2-.3.5-.3.8s.1.6.3.8.5.3.8.3.6-.1.8-.3l2.6-2.3v3.4c0,.3.1.6.3.8.2.2.5.3.8.3s.6-.1.8-.3c.2-.2.3-.5.3-.8v-3.4l2.7,2.3c.3.2.5.3.8.3s.6-.1.8-.3.3-.5.3-.8-.1-.6-.3-.8l-3.7-3.1,3.7-3.2c.2-.2.3-.5.3-.8Z" fill="#010101"/>
    <path d="M81,156.4c0-.3-.1-.6-.3-.8s-.5-.3-.8-.3-.6.1-.9.3l-2.7,2.3v-3.4c0-.3-.1-.6-.3-.8-.2-.2-.5-.3-.8-.3s-.6.1-.8.3-.3.5-.3.8v3.4l-2.6-2.3c-.2-.2-.5-.3-.8-.3s-.6.1-.8.3c-.2.2-.3.5-.3.8s.1.6.4.8l3.7,3.2-3.7,3.1c-.2.2-.3.5-.3.8s.1.6.3.8.5.3.8.3.6-.1.8-.3l2.6-2.3v3.4c0,.3.1.6.3.8.2.2.5.3.8.3s.6-.1.8-.3c.2-.2.3-.5.3-.8v-3.4l2.7,2.3c.3.2.5.3.8.3s.6-.1.8-.3.3-.5.3-.8-.1-.6-.3-.8l-3.7-3.1,3.7-3.2c.2-.2.3-.5.3-.8Z" fill="#010101"/>
    <path d="M98,156.4c0-.3-.1-.6-.3-.8s-.5-.3-.8-.3-.6.1-.9.3l-2.7,2.3v-3.4c0-.3-.1-.6-.3-.8-.2-.2-.5-.3-.8-.3s-.6.1-.8.3-.3.5-.3.8v3.4l-2.6-2.3c-.2-.2-.5-.3-.8-.3s-.6.1-.8.3c-.2.2-.3.5-.3.8s.1.6.4.8l3.7,3.2-3.7,3.1c-.2.2-.3.5-.3.8s.1.6.3.8.5.3.8.3.6-.1.8-.3l2.6-2.3v3.4c0,.3.1.6.3.8.2.2.5.3.8.3s.6-.1.8-.3c.2-.2.3-.5.3-.8v-3.4l2.7,2.3c.3.2.5.3.8.3s.6-.1.8-.3.3-.5.3-.8-.1-.6-.3-.8l-3.7-3.1,3.7-3.2c.2-.2.3-.5.3-.8Z" fill="#010101"/>
    <path d="M115.1,156.4c0-.3-.1-.6-.3-.8s-.5-.3-.8-.3-.6.1-.9.3l-2.7,2.3v-3.4c0-.3-.1-.6-.3-.8-.2-.2-.5-.3-.8-.3s-.6.1-.8.3-.3.5-.3.8v3.4l-2.6-2.3c-.2-.2-.5-.3-.8-.3s-.6.1-.8.3c-.2.2-.3.5-.3.8s.1.6.4.8l3.7,3.2-3.7,3.1c-.2.2-.3.5-.3.8s.1.6.3.8.5.3.8.3.6-.1.8-.3l2.6-2.3v3.4c0,.3.1.6.3.8.2.2.5.3.8.3s.6-.1.8-.3c.2-.2.3-.5.3-.8v-3.4l2.7,2.3c.3.2.5.3.8.3s.6-.1.8-.3.3-.5.3-.8-.1-.6-.3-.8l-3.7-3.1,3.7-3.2c.2-.2.3-.5.3-.8Z" fill="#010101"/>
    <path d="M144.5,162.8l2.7,2.3c.3.2.5.3.8.3s.6-.1.8-.3.3-.5.3-.8-.1-.6-.3-.8l-3.7-3.1,3.7-3.2c.2-.2.3-.5.3-.8s-.1-.6-.3-.8-.5-.3-.8-.3-.6.1-.9.3l-2.7,2.3v-3.4c0-.3-.1-.6-.3-.8-.2-.2-.5-.3-.8-.3s-.6.1-.8.3-.3.5-.3.8v3.4l-2.6-2.3c-.2-.2-.5-.3-.8-.3s-.6.1-.8.3c-.2.2-.3.5-.3.8s.1.6.4.8l3.7,3.2-3.7,3.1c-.2.2-.3.5-.3.8s.1.6.3.8.5.3.8.3.6-.1.8-.3l2.6-2.3v3.4c0,.3.1.6.3.8.2.2.5.3.8.3s.6-.1.8-.3c.2-.2.3-.5.3-.8v-3.4Z" fill="#010101"/>
    <path d="M159.5,167.1c.2.2.5.3.8.3s.6-.1.8-.3c.2-.2.3-.5.3-.8v-3.4l2.7,2.3c.3.2.5.3.8.3s.6-.1.8-.3.3-.5.3-.8-.1-.6-.3-.8l-3.7-3.1,3.7-3.2c.2-.2.3-.5.3-.8s-.1-.6-.3-.8-.5-.3-.8-.3-.6.1-.9.3l-2.7,2.3v-3.4c0-.3-.1-.6-.3-.8-.2-.2-.5-.3-.8-.3s-.6.1-.8.3-.3.5-.3.8v3.4l-2.6-2.3c-.2-.2-.5-.3-.8-.3s-.6.1-.8.3c-.2.2-.3.5-.3.8s.1.6.4.8l3.7,3.2-3.7,3.1c-.2.2-.3.5-.3.8s.1.6.3.8.5.3.8.3.6-.1.8-.3l2.6-2.3v3.4c0,.3.1.6.3.8Z" fill="#010101"/>
    <path d="M176.3,166.3c0,.3.1.6.3.8.2.2.5.3.8.3s.6-.1.8-.3c.2-.2.3-.5.3-.8v-3.4l2.7,2.3c.3.2.5.3.8.3s.6-.1.8-.3.3-.5.3-.8-.1-.6-.3-.8l-3.7-3.1,3.7-3.2c.2-.2.3-.5.3-.8s-.1-.6-.3-.8-.5-.3-.8-.3-.6.1-.9.3l-2.7,2.3v-3.4c0-.3-.1-.6-.3-.8-.2-.2-.5-.3-.8-.3s-.6.1-.8.3-.3.5-.3.8v3.4l-2.6-2.3c-.2-.2-.5-.3-.8-.3s-.6.1-.8.3c-.2.2-.3.5-.3.8s.1.6.4.8l3.7,3.2-3.7,3.1c-.2.2-.3.5-.3.8s.1.6.3.8.5.3.8.3.6-.1.8-.3l2.6-2.3v3.4Z" fill="#010101"/>
    <path d="M200.3,156.4c0-.3-.1-.6-.3-.8s-.5-.3-.8-.3-.6.1-.9.3l-2.7,2.3v-3.4c0-.3-.1-.6-.3-.8-.2-.2-.5-.3-.8-.3s-.6.1-.8.3-.3.5-.3.8v3.4l-2.6-2.3c-.2-.2-.5-.3-.8-.3s-.6.1-.8.3c-.2.2-.3.5-.3.8s.1.6.4.8l3.7,3.2-3.7,3.1c-.2.2-.3.5-.3.8s.1.6.3.8.5.3.8.3.6-.1.8-.3l2.6-2.3v3.4c0,.3.1.6.3.8.2.2.5.3.8.3s.6-.1.8-.3c.2-.2.3-.5.3-.8v-3.4l2.7,2.3c.3.2.5.3.8.3s.6-.1.8-.3.3-.5.3-.8-.1-.6-.3-.8l-3.7-3.1,3.7-3.2c.2-.2.3-.5.3-.8Z" fill="#010101"/>
    <path d="M234.4,156.4c0-.3-.1-.6-.3-.8-.2-.2-.5-.3-.8-.3s-.6.1-.9.3l-2.7,2.3v-3.4c0-.3-.1-.6-.3-.8-.2-.2-.5-.3-.8-.3s-.6.1-.8.3-.3.5-.3.8v3.4l-2.6-2.3c-.2-.2-.5-.3-.8-.3s-.6.1-.8.3-.3.5-.3.8.1.6.4.8l3.7,3.2-3.7,3.1c-.2.2-.3.5-.3.8s.1.6.3.8c.2.2.5.3.8.3s.6-.1.8-.3l2.6-2.3v3.4c0,.3.1.6.3.8s.5.3.8.3.6-.1.8-.3c.2-.2.3-.5.3-.8v-3.4l2.7,2.3c.3.2.5.3.8.3s.6-.1.8-.3.3-.5.3-.8-.1-.6-.3-.8l-3.7-3.1,3.7-3.2c.2-.2.3-.5.3-.8Z" fill="#010101"/>
    <path d="M251.4,164.3c0-.3-.1-.6-.3-.8l-3.7-3.1,3.7-3.2c.2-.2.3-.5.3-.8s-.1-.6-.3-.8c-.2-.2-.5-.3-.8-.3s-.6.1-.9.3l-2.7,2.3v-3.4c0-.3-.1-.6-.3-.8-.2-.2-.5-.3-.8-.3s-.6.1-.8.3-.3.5-.3.8v3.4l-2.6-2.3c-.2-.2-.5-.3-.8-.3s-.6.1-.8.3-.3.5-.3.8.1.6.4.8l3.7,3.2-3.7,3.1c-.2.2-.3.5-.3.8s.1.6.3.8c.2.2.5.3.8.3s.6-.1.8-.3l2.6-2.3v3.4c0,.3.1.6.3.8s.5.3.8.3.6-.1.8-.3c.2-.2.3-.5.3-.8v-3.4l2.7,2.3c.3.2.5.3.8.3s.6-.1.8-.3.3-.5.3-.8Z" fill="#010101"/>
    <path d="M267.3,165.5c.3,0,.6-.1.8-.3s.3-.5.3-.8-.1-.6-.3-.8l-3.7-3.1,3.7-3.2c.2-.2.3-.5.3-.8s-.1-.6-.3-.8c-.2-.2-.5-.3-.8-.3s-.6.1-.9.3l-2.7,2.3v-3.4c0-.3-.1-.6-.3-.8-.2-.2-.5-.3-.8-.3s-.6.1-.8.3-.3.5-.3.8v3.4l-2.6-2.3c-.2-.2-.5-.3-.8-.3s-.6.1-.8.3-.3.5-.3.8.1.6.4.8l3.7,3.2-3.7,3.1c-.2.2-.3.5-.3.8s.1.6.3.8c.2.2.5.3.8.3s.6-.1.8-.3l2.6-2.3v3.4c0,.3.1.6.3.8s.5.3.8.3.6-.1.8-.3c.2-.2.3-.5.3-.8v-3.4l2.7,2.3c.3.2.5.3.8.3Z" fill="#010101"/>
    <path d="M285.5,156.4c0-.3-.1-.6-.3-.8-.2-.2-.5-.3-.8-.3s-.6.1-.9.3l-2.7,2.3v-3.4c0-.3-.1-.6-.3-.8-.2-.2-.5-.3-.8-.3s-.6.1-.8.3-.3.5-.3.8v3.4l-2.6-2.3c-.2-.2-.5-.3-.8-.3s-.6.1-.8.3-.3.5-.3.8.1.6.4.8l3.7,3.2-3.7,3.1c-.2.2-.3.5-.3.8s.1.6.3.8c.2.2.5.3.8.3s.6-.1.8-.3l2.6-2.3v3.4c0,.3.1.6.3.8s.5.3.8.3.6-.1.8-.3c.2-.2.3-.5.3-.8v-3.4l2.7,2.3c.3.2.5.3.8.3s.6-.1.8-.3.3-.5.3-.8-.1-.6-.3-.8l-3.7-3.1,3.7-3.2c.2-.2.3-.5.3-.8Z" fill="#010101"/>
    <path d="M318.6,168.8c.4-.4.6-1,.6-1.6v-13.7c0-.6-.2-1.1-.6-1.6-.4-.4-.9-.7-1.5-.7h-7.2c-.6,0-1.1.2-1.6.7s-.7,1-.7,1.6v13.7c0,.6.2,1.1.6,1.6.4.4,1,.6,1.6.6h7.1c.6,0,1.1-.2,1.6-.6ZM316.9,167.1h-7v-13.5h7v13.5Z" fill="#010101"/>
    <path d="M332.2,168.3c0,.3.1.6.3.8.2.2.5.3.8.3s.6-.1.8-.3.3-.5.3-.8v-4.8c.3,0,.6-.1.8-.3.2-.2.3-.5.3-.8s-.1-.6-.3-.8-.5-.3-.8-.3v-6.7c0-.3-.1-.6-.3-.8-.2-.2-.5-.3-.8-.3s-.6.1-.8.3c-.2.2-.3.5-.3.8v6.7h-4.6v-8.7c0-.3-.1-.6-.3-.8s-.5-.3-.8-.3-.6.1-.8.3c-.2.2-.3.5-.3.8v11.1h6.9v4.8Z" fill="#010101"/>
    <path d="M370.3,161.5c0-.6-.2-1.2-.7-1.6-.5-.4-1-.7-1.6-.7v-6.8c0-.3-.1-.6-.3-.8-.2-.2-.5-.3-.8-.3h-4.7c-.3,0-.6.1-.8.3-.2.2-.3.5-.3.8v6.8c-.6,0-1.2.2-1.6.7-.5.5-.7,1-.7,1.6v5.6c0,.6.2,1.1.7,1.6.5.5,1,.7,1.6.7h7c.6,0,1.2-.2,1.6-.7.5-.5.7-1,.7-1.6v-5.6ZM363.4,153.6h2.4v5.6h-2.4v-5.6ZM368,167.1h-7v-5.6h7v5.6Z" fill="#010101"/>
    <path d="M353,161.5c-.2-.2-.5-.4-.8-.4h-8.1v-7.6c.3,0,.6-.1.8-.3.2-.2.3-.5.3-.8s-.1-.6-.3-.8c-.2-.2-.5-.3-.8-.3h-1.1c-.3,0-.6.1-.8.3-.2.2-.3.5-.3.8v15.8c0,.3.1.6.4.8.2.2.5.3.8.3h9.2c.3,0,.6-.1.8-.3.2-.2.3-.5.3-.8v-5.9c0-.3-.1-.6-.3-.8ZM351,167.1h-7v-3.6h7v3.6Z" fill="#010101"/>
  </g>
  <g display="none">
    <image width="1715" height="1092" transform="translate(4.2 4) scale(.2)" xlink:href="../../../../../../../../Downloads/dahabia.png"/>
    <path d="M69.3,157.8v-3.5c0-.3.1-.6.4-.8.2-.2.5-.4.9-.4s.6.1.8.4c.2.2.4.5.4.8v3.6l2.8-2.4c.3-.2.6-.3.9-.3s.6.1.8.4c.2.2.3.5.3.8s-.1.6-.4.8l-3.8,3.3,3.8,3.3c.2.2.4.5.4.8s-.1.6-.3.9c-.2.2-.5.4-.8.4s-.6-.1-.9-.3l-2.8-2.4v3.6c0,.3-.1.6-.4.8s-.5.4-.8.4-.6-.1-.9-.4-.4-.5-.4-.8v-3.5l-2.7,2.4c-.3.2-.5.3-.8.3s-.6-.1-.8-.4c-.2-.2-.3-.5-.3-.9s.1-.6.4-.8l3.8-3.3-3.8-3.3c-.3-.2-.4-.5-.4-.8s.1-.6.4-.8c.2-.2.5-.4.8-.4s.6.1.9.3l2.7,2.4Z" fill="url(#New_Gradient_Swatch_4)"/>
    <path d="M87,157.8v-3.5c0-.3.1-.6.4-.8.2-.2.5-.4.9-.4s.6.1.8.4c.2.2.4.5.4.8v3.6l2.8-2.4c.3-.2.6-.3.9-.3s.6.1.8.4c.2.2.3.5.3.8s-.1.6-.4.8l-3.8,3.3,3.8,3.3c.2.2.4.5.4.8s-.1.6-.3.9c-.2.2-.5.4-.8.4s-.6-.1-.9-.3l-2.8-2.4v3.6c0,.3-.1.6-.4.8s-.5.4-.8.4-.6-.1-.9-.4-.4-.5-.4-.8v-3.5l-2.7,2.4c-.3.2-.5.3-.8.3s-.6-.1-.8-.4c-.2-.2-.3-.5-.3-.9s.1-.6.4-.8l3.8-3.3-3.8-3.3c-.3-.2-.4-.5-.4-.8s.1-.6.4-.8c.2-.2.5-.4.8-.4s.6.1.9.3l2.7,2.4Z" fill="url(#New_Gradient_Swatch_41)"/>
    <path d="M104.6,157.8v-3.5c0-.3.1-.6.4-.8.2-.2.5-.4.9-.4s.6.1.8.4c.2.2.4.5.4.8v3.6l2.8-2.4c.3-.2.6-.3.9-.3s.6.1.8.4c.2.2.3.5.3.8s-.1.6-.4.8l-3.8,3.3,3.8,3.3c.2.2.4.5.4.8s-.1.6-.3.9c-.2.2-.5.4-.8.4s-.6-.1-.9-.3l-2.8-2.4v3.6c0,.3-.1.6-.4.8s-.5.4-.8.4-.6-.1-.9-.4-.4-.5-.4-.8v-3.5l-2.7,2.4c-.3.2-.5.3-.8.3s-.6-.1-.8-.4c-.2-.2-.3-.5-.3-.9s.1-.6.4-.8l3.8-3.3-3.8-3.3c-.3-.2-.4-.5-.4-.8s.1-.6.4-.8c.2-.2.5-.4.8-.4s.6.1.9.3l2.7,2.4Z" fill="url(#New_Gradient_Swatch_42)"/>
    <path d="M122.3,157.8v-3.5c0-.3.1-.6.4-.8.2-.2.5-.4.9-.4s.6.1.8.4c.2.2.4.5.4.8v3.6l2.8-2.4c.3-.2.6-.3.9-.3s.6.1.8.4c.2.2.3.5.3.8s-.1.6-.4.8l-3.8,3.3,3.8,3.3c.2.2.4.5.4.8s-.1.6-.3.9c-.2.2-.5.4-.8.4s-.6-.1-.9-.3l-2.8-2.4v3.6c0,.3-.1.6-.4.8s-.5.4-.8.4-.6-.1-.9-.4-.4-.5-.4-.8v-3.5l-2.7,2.4c-.3.2-.5.3-.8.3s-.6-.1-.8-.4c-.2-.2-.3-.5-.3-.9s.1-.6.4-.8l3.8-3.3-3.8-3.3c-.3-.2-.4-.5-.4-.8s.1-.6.4-.8c.2-.2.5-.4.8-.4s.6.1.9.3l2.7,2.4Z" fill="url(#New_Gradient_Swatch_43)"/>
    <path d="M157.6,157.8v-3.5c0-.3.1-.6.4-.8.2-.2.5-.4.9-.4s.6.1.8.4c.2.2.4.5.4.8v3.6l2.8-2.4c.3-.2.6-.3.9-.3s.6.1.8.4c.2.2.3.5.3.8s-.1.6-.4.8l-3.8,3.3,3.8,3.3c.2.2.4.5.4.8s-.1.6-.3.9c-.2.2-.5.4-.8.4s-.6-.1-.9-.3l-2.8-2.4v3.6c0,.3-.1.6-.4.8s-.5.4-.8.4-.6-.1-.9-.4-.4-.5-.4-.8v-3.5l-2.7,2.4c-.3.2-.5.3-.8.3s-.6-.1-.8-.4c-.2-.2-.3-.5-.3-.9s.1-.6.4-.8l3.8-3.3-3.8-3.3c-.3-.2-.4-.5-.4-.8s.1-.6.4-.8c.2-.2.5-.4.8-.4s.6.1.9.3l2.7,2.4Z" fill="url(#New_Gradient_Swatch_44)"/>
    <path d="M175.3,157.8v-3.5c0-.3.1-.6.4-.8.2-.2.5-.4.9-.4s.6.1.8.4c.2.2.4.5.4.8v3.6l2.8-2.4c.3-.2.6-.3.9-.3s.6.1.8.4c.2.2.3.5.3.8s-.1.6-.4.8l-3.8,3.3,3.8,3.3c.2.2.4.5.4.8s-.1.6-.3.9c-.2.2-.5.4-.8.4s-.6-.1-.9-.3l-2.8-2.4v3.6c0,.3-.1.6-.4.8s-.5.4-.8.4-.6-.1-.9-.4-.4-.5-.4-.8v-3.5l-2.7,2.4c-.3.2-.5.3-.8.3s-.6-.1-.8-.4c-.2-.2-.3-.5-.3-.9s.1-.6.4-.8l3.8-3.3-3.8-3.3c-.3-.2-.4-.5-.4-.8s.1-.6.4-.8c.2-.2.5-.4.8-.4s.6.1.9.3l2.7,2.4Z" fill="url(#New_Gradient_Swatch_45)"/>
    <path d="M192.9,157.8v-3.5c0-.3.1-.6.4-.8.2-.2.5-.4.9-.4s.6.1.8.4c.2.2.4.5.4.8v3.6l2.8-2.4c.3-.2.6-.3.9-.3s.6.1.8.4c.2.2.3.5.3.8s-.1.6-.4.8l-3.8,3.3,3.8,3.3c.2.2.4.5.4.8s-.1.6-.3.9c-.2.2-.5.4-.8.4s-.6-.1-.9-.3l-2.8-2.4v3.6c0,.3-.1.6-.4.8s-.5.4-.8.4-.6-.1-.9-.4-.4-.5-.4-.8v-3.5l-2.7,2.4c-.3.2-.5.3-.8.3s-.6-.1-.8-.4c-.2-.2-.3-.5-.3-.9s.1-.6.4-.8l3.8-3.3-3.8-3.3c-.3-.2-.4-.5-.4-.8s.1-.6.4-.8c.2-.2.5-.4.8-.4s.6.1.9.3l2.7,2.4Z" fill="url(#New_Gradient_Swatch_46)"/>
    <path d="M210.6,157.8v-3.5c0-.3.1-.6.4-.8.2-.2.5-.4.9-.4s.6.1.8.4c.2.2.4.5.4.8v3.6l2.8-2.4c.3-.2.6-.3.9-.3s.6.1.8.4c.2.2.3.5.3.8s-.1.6-.4.8l-3.8,3.3,3.8,3.3c.2.2.4.5.4.8s-.1.6-.3.9c-.2.2-.5.4-.8.4s-.6-.1-.9-.3l-2.8-2.4v3.6c0,.3-.1.6-.4.8s-.5.4-.8.4-.6-.1-.9-.4-.4-.5-.4-.8v-3.5l-2.7,2.4c-.3.2-.5.3-.8.3s-.6-.1-.8-.4c-.2-.2-.3-.5-.3-.9s.1-.6.4-.8l3.8-3.3-3.8-3.3c-.3-.2-.4-.5-.4-.8s.1-.6.4-.8c.2-.2.5-.4.8-.4s.6.1.9.3l2.7,2.4Z" fill="url(#New_Gradient_Swatch_47)"/>
    <path d="M245.9,157.8v-3.5c0-.3.1-.6.4-.8.2-.2.5-.4.9-.4s.6.1.8.4c.2.2.4.5.4.8v3.6l2.8-2.4c.3-.2.6-.3.9-.3s.6.1.8.4c.2.2.3.5.3.8s-.1.6-.4.8l-3.8,3.3,3.8,3.3c.2.2.4.5.4.8s-.1.6-.3.9c-.2.2-.5.4-.8.4s-.6-.1-.9-.3l-2.8-2.4v3.6c0,.3-.1.6-.4.8s-.5.4-.8.4-.6-.1-.9-.4-.4-.5-.4-.8v-3.5l-2.7,2.4c-.3.2-.5.3-.8.3s-.6-.1-.8-.4c-.2-.2-.3-.5-.3-.9s.1-.6.4-.8l3.8-3.3-3.8-3.3c-.3-.2-.4-.5-.4-.8s.1-.6.4-.8c.2-.2.5-.4.8-.4s.6.1.9.3l2.7,2.4Z" fill="url(#New_Gradient_Swatch_48)"/>
    <path d="M263.6,157.8v-3.5c0-.3.1-.6.4-.8.2-.2.5-.4.9-.4s.6.1.8.4c.2.2.4.5.4.8v3.6l2.8-2.4c.3-.2.6-.3.9-.3s.6.1.8.4c.2.2.3.5.3.8s-.1.6-.4.8l-3.8,3.3,3.8,3.3c.2.2.4.5.4.8s-.1.6-.3.9c-.2.2-.5.4-.8.4s-.6-.1-.9-.3l-2.8-2.4v3.6c0,.3-.1.6-.4.8s-.5.4-.8.4-.6-.1-.9-.4-.4-.5-.4-.8v-3.5l-2.7,2.4c-.3.2-.5.3-.8.3s-.6-.1-.8-.4c-.2-.2-.3-.5-.3-.9s.1-.6.4-.8l3.8-3.3-3.8-3.3c-.3-.2-.4-.5-.4-.8s.1-.6.4-.8c.2-.2.5-.4.8-.4s.6.1.9.3l2.7,2.4Z" fill="url(#New_Gradient_Swatch_49)"/>
    <path d="M281.2,157.8v-3.5c0-.3.1-.6.4-.8.2-.2.5-.4.9-.4s.6.1.8.4c.2.2.4.5.4.8v3.6l2.8-2.4c.3-.2.6-.3.9-.3s.6.1.8.4c.2.2.3.5.3.8s-.1.6-.4.8l-3.8,3.3,3.8,3.3c.2.2.4.5.4.8s-.1.6-.3.9c-.2.2-.5.4-.8.4s-.6-.1-.9-.3l-2.8-2.4v3.6c0,.3-.1.6-.4.8s-.5.4-.8.4-.6-.1-.9-.4-.4-.5-.4-.8v-3.5l-2.7,2.4c-.3.2-.5.3-.8.3s-.6-.1-.8-.4c-.2-.2-.3-.5-.3-.9s.1-.6.4-.8l3.8-3.3-3.8-3.3c-.3-.2-.4-.5-.4-.8s.1-.6.4-.8c.2-.2.5-.4.8-.4s.6.1.9.3l2.7,2.4Z" fill="url(#New_Gradient_Swatch_410)"/>
    <path d="M298.9,157.8v-3.5c0-.3.1-.6.4-.8.2-.2.5-.4.9-.4s.6.1.8.4c.2.2.4.5.4.8v3.6l2.8-2.4c.3-.2.6-.3.9-.3s.6.1.8.4c.2.2.3.5.3.8s-.1.6-.4.8l-3.8,3.3,3.8,3.3c.2.2.4.5.4.8s-.1.6-.3.9c-.2.2-.5.4-.8.4s-.6-.1-.9-.3l-2.8-2.4v3.6c0,.3-.1.6-.4.8s-.5.4-.8.4-.6-.1-.9-.4-.4-.5-.4-.8v-3.5l-2.7,2.4c-.3.2-.5.3-.8.3s-.6-.1-.8-.4c-.2-.2-.3-.5-.3-.9s.1-.6.4-.8l3.8-3.3-3.8-3.3c-.3-.2-.4-.5-.4-.8s.1-.6.4-.8c.2-.2.5-.4.8-.4s.6.1.9.3l2.7,2.4Z" fill="url(#New_Gradient_Swatch_411)"/>
    <g>
      <path d="M48.7,204.1v-9c0-.4.1-.7.4-1s.6-.4,1-.4h4.7c.4,0,.7.1,1,.4.3.3.4.6.4,1v9c0,.4-.1.7-.4,1s-.6.4-1,.4h-4.7c-.4,0-.7-.1-1-.4-.3-.3-.4-.6-.4-1ZM54.8,204.1v-8.9h-4.6v8.9h4.6Z" fill="url(#New_Gradient_Swatch_412)"/>
      <path d="M66.6,205.6h-6.8v-5.2c0-.4.1-.8.4-1.1.3-.3.6-.4,1.1-.4h4.6v-3.7h-5.4c-.2,0-.4,0-.5-.2-.1-.1-.2-.3-.2-.5s0-.4.2-.5c.1-.1.3-.2.5-.2h5.4c.4,0,.8.1,1.1.4.3.3.4.6.4,1.1v3.7c0,.4-.1.8-.4,1.1-.3.3-.7.4-1.1.4h-4.6v3.7h5.3c.2,0,.4,0,.5.2.1.1.2.3.2.5s0,.4-.2.5c-.1.1-.3.2-.5.2Z" fill="url(#New_Gradient_Swatch_413)"/>
      <path d="M78.4,195l-6.1,10.3c0,.2-.2.2-.5.2s-.4,0-.5-.2c-.2-.1-.3-.3-.3-.5s0-.4.2-.6l6.1-10.3c.1-.2.3-.2.5-.2s.4,0,.5.2c.2.1.3.3.3.5s0,.4-.2.6Z" fill="url(#New_Gradient_Swatch_414)"/>
      <path d="M88.8,205.6h-6.8v-5.2c0-.4.1-.8.4-1.1.3-.3.6-.4,1.1-.4h4.6v-3.7h-5.4c-.2,0-.4,0-.5-.2-.1-.1-.2-.3-.2-.5s0-.4.2-.5c.1-.1.3-.2.5-.2h5.4c.4,0,.8.1,1.1.4.3.3.4.6.4,1.1v3.7c0,.4-.1.8-.4,1.1-.3.3-.7.4-1.1.4h-4.6v3.7h5.3c.2,0,.4,0,.5.2.1.1.2.3.2.5s0,.4-.2.5c-.1.1-.3.2-.5.2Z" fill="url(#New_Gradient_Swatch_415)"/>
      <path d="M93.8,193.7h.8c.2,0,.4,0,.5.2.1.1.2.3.2.5s0,.4-.2.5-.3.2-.5.2v5h5.3c.2,0,.4,0,.5.2.1.2.2.3.2.5v3.9c0,.2,0,.4-.2.5-.2.1-.3.2-.5.2h-6c-.2,0-.4,0-.5-.2-.2-.1-.2-.3-.2-.5v-10.4c0-.2,0-.4.2-.5.1-.1.3-.2.5-.2ZM94.6,201.7v2.4h4.5v-2.4h-4.5Z" fill="url(#New_Gradient_Swatch_416)"/>
    </g>
    <g>
      <path d="M124,242.1v-15.2h7.3c.8,0,1.6.3,2.2.9.6.6.9,1.3.9,2.2v1.2c0,.9-.3,1.6-.9,2.2-.6.6-1.3.9-2.2.9h-1.3l4.2,7.2c.1.2.2.4.2.6s-.1.5-.3.7c-.2.2-.5.3-.7.3-.4,0-.7-.2-.9-.5l-4.8-8.3h-1.5v7.8c0,.3-.1.5-.3.7-.2.2-.5.3-.7.3s-.5,0-.7-.3c-.2-.2-.3-.4-.3-.7ZM126.1,232.3h5.2c.3,0,.5,0,.7-.3.2-.2.3-.4.3-.7v-1.2c0-.3,0-.5-.3-.7-.2-.2-.4-.3-.7-.3h-5.2v3.2Z" fill="url(#linear-gradient)"/>
      <path d="M140.2,226.9h8.3c.3,0,.5.1.7.3.2.2.3.4.3.7s-.1.5-.3.7c-.2.2-.4.3-.7.3h-3.1v12.1h3.1c.3,0,.5,0,.7.3.2.2.3.4.3.7s-.1.5-.3.7c-.2.2-.4.3-.7.3h-8.3c-.3,0-.5,0-.7-.3-.2-.2-.3-.4-.3-.7s0-.5.3-.7c.2-.2.4-.3.7-.3h3.1v-12.1h-3.1c-.3,0-.5-.1-.7-.3-.2-.2-.3-.4-.3-.7s0-.5.3-.7c.2-.2.4-.3.7-.3Z" fill="url(#linear-gradient1)"/>
      <path d="M160.7,233.3v6.8l.6,1h.9l.6-1v-12.1c0-.3.1-.5.3-.7.2-.2.5-.3.7-.3s.5.1.7.3c.2.2.3.4.3.7v12.5c0,.2,0,.4-.3.6l-1,1.6c-.2.4-.5.5-.9.5h-1.9c-.6,0-1-.3-1.2-.8-.2.6-.6.8-1.1.8h-1.8c-.5,0-.9-.2-1.1-.6l-.9-1.5c-.2-.3-.2-.5-.2-.7v-12.4c0-.3.1-.5.3-.7.2-.2.5-.3.7-.3s.5.1.7.3c.2.2.3.5.3.7v12.1l.6,1h.9l.6-1v-6.8c0-.3,0-.5.3-.7.2-.2.4-.3.7-.3s.5,0,.7.3c.2.2.3.4.3.7Z" fill="url(#linear-gradient2)"/>
      <path d="M169.7,241.7l4.1-14c.2-.5.5-.8,1-.8s.8.2,1,.6l4.1,14.2c0,.1,0,.2,0,.3,0,.3,0,.5-.3.7-.2.2-.4.3-.7.3-.5,0-.9-.2-1-.7l-.8-2.8h-4.7l-.9,3c0,.1-.1.3-.3.4-.2.1-.4.2-.6.2-.3,0-.6-.1-.7-.3-.2-.2-.3-.5-.3-.7s0-.2,0-.4ZM174.9,231.7l-1.8,5.9h3.5l-1.7-5.9Z" fill="url(#linear-gradient3)"/>
      <path d="M189,233.3v-.5l-2.1-3v12.4c0,.3,0,.5-.3.7-.2.2-.4.3-.7.3s-.5-.1-.7-.3c-.2-.2-.3-.4-.3-.7v-15.2h2.7l2.5,3.7,2.6-3.7h2.6v15.2c0,.3-.1.5-.3.7-.2.2-.5.3-.7.3s-.5-.1-.7-.3c-.2-.2-.3-.4-.3-.7v-12.3l-2.1,2.9v.6c0,.3-.1.5-.3.7-.2.2-.4.3-.7.3s-.5-.1-.7-.3c-.2-.2-.3-.4-.3-.7Z" fill="url(#linear-gradient4)"/>
      <path d="M215.3,240.1v-12.1c0-.3.1-.5.3-.7.2-.2.4-.3.7-.3s.5.1.7.3c.2.2.3.4.3.7v12.1c0,.3.1.5.3.7.2.2.4.3.7.3h4.2c.3,0,.5,0,.7-.3s.3-.4.3-.7v-12.1c0-.3,0-.5.3-.7.2-.2.4-.3.7-.3s.5.1.7.3.3.5.3.7v12.1c0,.8-.3,1.6-.9,2.2s-1.3.9-2.2.9h-4.2c-.8,0-1.6-.3-2.2-.9s-.9-1.3-.9-2.2Z" fill="url(#linear-gradient5)"/>
      <path d="M232.9,226.9h5.3c.7,0,1.3.3,1.9.8.6.5.9,1.2.9,2s-.1.5-.3.7c-.2.2-.4.3-.7.3s-.6,0-.7-.2c-.1-.2-.3-.5-.4-.9s-.4-.6-.8-.6h-5.1c-.2,0-.4,0-.4.2,0,0,0,.2.1.3l7.6,9.7c.4.5.6,1,.6,1.5s-.2,1.1-.7,1.6c-.4.5-.9.7-1.5.7h-5.5c-.7,0-1.4-.3-1.9-.8-.5-.6-.8-1.2-.8-1.8s.4-1.1,1.1-1.1.5,0,.7.3c.2.2.3.4.3.7s0,.4.2.5.3.2.6.2h5.1c.2,0,.3,0,.3-.3,0,0,0-.2-.2-.3l-7.6-9.7c-.4-.5-.5-1-.5-1.5s.2-1.2.7-1.7c.5-.5,1-.7,1.6-.7Z" fill="url(#linear-gradient6)"/>
      <path d="M255.1,229h-7.3v5h3.1c.3,0,.5.1.7.3.2.2.3.4.3.7s0,.5-.3.7c-.2.2-.4.3-.7.3h-3.1v5h7.3c.3,0,.5,0,.7.3.2.2.3.4.3.7s-.1.5-.3.7c-.2.2-.5.3-.7.3h-9.3v-16.2h9.3c.3,0,.5.1.7.3.2.2.3.5.3.7s-.1.5-.3.7c-.2.2-.5.3-.7.3Z" fill="url(#linear-gradient7)"/>
      <path d="M261.1,242.1v-15.2h7.3c.8,0,1.6.3,2.2.9.6.6.9,1.3.9,2.2v1.2c0,.9-.3,1.6-.9,2.2-.6.6-1.3.9-2.2.9h-1.3l4.2,7.2c.1.2.2.4.2.6s-.1.5-.3.7c-.2.2-.5.3-.7.3-.4,0-.7-.2-.9-.5l-4.8-8.3h-1.5v7.8c0,.3-.1.5-.3.7-.2.2-.5.3-.7.3s-.5,0-.7-.3c-.2-.2-.3-.4-.3-.7ZM263.1,232.3h5.2c.3,0,.5,0,.7-.3.2-.2.3-.4.3-.7v-1.2c0-.3,0-.5-.3-.7-.2-.2-.4-.3-.7-.3h-5.2v3.2Z" fill="url(#linear-gradient)"/>
    </g>
    <g>
      <path d="M324,167.8v-14.2c0-.6.2-1.2.7-1.6s1-.7,1.6-.7h7.4c.6,0,1.1.2,1.6.7.4.5.7,1,.7,1.6v14.2c0,.6-.2,1.2-.7,1.6s-1,.7-1.6.7h-7.4c-.6,0-1.2-.2-1.6-.7-.4-.4-.7-1-.7-1.6ZM333.6,167.7v-14h-7.2v14h7.2Z" fill="url(#New_Gradient_Swatch_417)"/>
      <path d="M353.7,153.7v4.5c0,1-.3,1.9-1,2.5.7.7,1,1.5,1,2.4v4.6c0,.7-.2,1.2-.7,1.7-.5.5-1,.7-1.7.7h-8.4c-.3,0-.6-.1-.8-.3s-.3-.5-.3-.8.1-.6.3-.8.5-.3.8-.3h8.4v-4.6c0-.3-.1-.6-.3-.9-.2-.2-.5-.4-.8-.4h-4.8c-.3,0-.6-.1-.8-.3-.2-.2-.3-.5-.3-.8s.1-.6.3-.8.5-.3.8-.3h4.8c.3,0,.6-.1.8-.3.2-.2.4-.5.4-.8v-4.6h-8.5c-.3,0-.6-.1-.8-.3-.2-.2-.3-.5-.3-.8s.1-.6.3-.8c.2-.2.5-.3.8-.3h8.5c.7,0,1.2.2,1.7.7.5.5.7,1,.7,1.7Z" fill="url(#New_Gradient_Swatch_418)"/>
      <path d="M363.7,167.7h5.5v-5.8h-7.2v-10.6h8.4c.3,0,.6.1.8.4s.4.5.4.8-.1.6-.3.8c-.2.2-.5.3-.8.3h-6v5.8h4.8c.6,0,1.2.2,1.7.7s.7,1,.7,1.7v5.8c0,.7-.2,1.2-.7,1.7s-1,.7-1.7.7h-5.5c-.5,0-1-.1-1.6-.4l-1.8-.8c-.5-.2-.7-.6-.7-1.1s.1-.6.3-.8c.2-.2.5-.3.8-.3s.5,0,.8.2l1.6.7c.2.1.4.2.6.2Z" fill="url(#New_Gradient_Swatch_419)"/>
      <path d="M387.8,170h-1.2c-.3,0-.6-.1-.8-.3-.2-.2-.4-.5-.4-.8s.1-.6.3-.8.5-.3.8-.3v-7.9h-8.4c-.3,0-.6-.1-.8-.4s-.4-.5-.4-.8v-6.2c0-.3.1-.6.4-.8s.5-.4.8-.4h9.6c.3,0,.6.1.8.4s.4.5.4.8v16.4c0,.3-.1.6-.3.8s-.5.3-.8.3ZM386.7,157.4v-3.7h-7.2v3.7h7.2Z" fill="url(#New_Gradient_Swatch_420)"/>
    </g>
  </g>
</svg>