<?xml version="1.0" encoding="UTF-8"?>
<svg id="Layer_1" xmlns="http://www.w3.org/2000/svg" version="1.1" xmlns:xlink="http://www.w3.org/1999/xlink" viewBox="0 0 900 200">
  <!-- Generator: Adobe Illustrator 29.4.0, SVG Export Plug-In . SVG Version: 2.1.0 Build 152)  -->
  <defs>
    <style>
      .st0 {
        fill: url(#linear-gradient2);
      }

      .st1 {
        fill: #fff;
      }

      .st2 {
        fill: url(#linear-gradient1);
      }

      .st3 {
        fill: url(#linear-gradient);
      }
    </style>
    <linearGradient id="linear-gradient" x1="241.2" y1="110.3" x2="18.2" y2="191.5" gradientUnits="userSpaceOnUse">
      <stop offset="0" stop-color="#6c44d8"/>
      <stop offset=".1" stop-color="#7248dd"/>
      <stop offset=".3" stop-color="#8756ee"/>
      <stop offset=".6" stop-color="#a691f6"/>
      <stop offset=".8" stop-color="#b0a8e2"/>
    </linearGradient>
    <linearGradient id="linear-gradient1" x1="26.3" y1="-14.4" x2="221.2" y2="98.1" xlink:href="#linear-gradient"/>
    <linearGradient id="linear-gradient2" x1="359.7" y1="56" x2="257.2" y2="158.6" gradientUnits="userSpaceOnUse">
      <stop offset="0" stop-color="#6c44d8"/>
      <stop offset=".1" stop-color="#7248dd"/>
      <stop offset=".3" stop-color="#8756ee"/>
      <stop offset=".6" stop-color="#a691f6"/>
      <stop offset=".8" stop-color="#b0a8e2"/>
    </linearGradient>
  </defs>
  <g id="Logo_R">
    <path id="Down" class="st3" d="M236.7,101.2c0,3.1-.7,6-1.9,8.6,0,0,0,0,0,0l-1.6,2.7-47.5,82.3h-39l-3.7-18-14.2-69-.7-3.5-1.3,2.2-49.5,85.8-1.5,2.6H19.4l40.3-69.7,1.1-2c8.6-14.1,23.9-23.4,41.3-23.4h115.5c5.3-3.3,8.9-9,9.3-15.7,0-.4,0-.9,0-1.3,0-1.4-.1-2.7-.4-4.1l6.1,10.5s0,0,0,0l2.3,4c.9,2,1.4,4.2,1.6,6.5,0,.5,0,1,0,1.5Z"/>
    <path class="st2" d="M227,82.8c0,.4,0,.9,0,1.3-.4,6.6-4,12.3-9.3,15.6h-39.2l-.2-.3-18.3-31.7-.4-.6h-95.2c-7.4,0-13.9-3.7-17.8-9.3l-1.4-2.3L15,5.1h141.3c16.4,0,30.9,8.3,39.7,21l4.1,7.1,20.1,34.7,6.3,10.9c.3,1.3.4,2.7.4,4.1Z"/>
  </g>
  <g id="RIWAM">
    <path class="st0" d="M320.6,36.7c12.7,0,23.2,3.9,31.6,11.9,8.4,8,12.7,17.7,12.7,29.6s-9.4,30.2-24,37.2l28.6,47.9h-27.5l-26.1-43.7h-29.2v43.7h-24.8V36.7h58.7ZM286.7,59.5v37.4h33.9c10.7,0,18.7-8,18.7-18.7s-8-18.7-18.7-18.7h-33.9Z"/>
    <path class="st1" d="M385.9,163.3V36.7h24.6v126.7h-24.6Z"/>
    <path class="st1" d="M601.2,163.3l54.2-126.7h20.1l54,126.7h-25.7l-9.9-23.6h-56.9l-9.7,23.6h-25.9ZM665.3,71.5l-19.1,46h38.4l-19.3-46Z"/>
    <path class="st1" d="M605.4,36.8l-9.7,23.6h0l-11.8,28.1-2.4,5.8-14.2,34.3h0s-11.5-27.4-11.5-27.4l-4.3-10.1-.7-1.8-2.8-6.7h0l-9.3-22.2h0l-3.3-7.8-6.5-15.4-8.9,21.4-.6,1.5-15.5,37.1-12.9,31.1-14.6-34.8-1.1-2.7-3.5-8.5h0l-10.7-25.7-8.5-20.1h-25.7l54,126.7h20.1l28.1-65.6,28.1,65.9h20l54.2-126.7h-25.9Z"/>
    <path class="st1" d="M745.9,163.3V36.7h24.4l45.2,79.7,45.2-79.7h24.4v126.7h-24.4v-80.5l-37,66.3h-16.4l-37-66.3v80.5h-24.4Z"/>
  </g>
</svg>