<?xml version="1.0" encoding="UTF-8"?>
<svg id="Layer_1" xmlns="http://www.w3.org/2000/svg" version="1.1" viewBox="0 0 200 200">
  <!-- Generator: Adobe Illustrator 29.4.0, SVG Export Plug-In . SVG Version: 2.1.0 Build 152)  -->
  <defs>
    <style>
      .st0 {
        fill: #fff;
      }

      .st1 {
        fill: #8756ee;
      }

      .st2 {
        display: none;
      }
    </style>
  </defs>
  <g id="RIWAM" class="st2">
    <g>
      <path id="M" class="st0" d="M544.46,28.49v144.29h-21.2v-93.9l-28.85,28.41-6.93,6.82-8.07,7.93-44.86-44.16h0s-21.2-20.87-21.2-20.87v-29.53l66.07,65.05,65.05-64.04ZM413.34,71.77l21.2,20.88v80.14h-21.2v-101.01Z"/>
      <g id="A">
        <polygon class="st0" points="300.41 80.58 276.38 136.66 260.87 172.83 233.87 172.83 269.44 89.86 285.13 53.26 296.03 72.73 300.41 80.58"/>
        <polygon class="st0" points="391.97 172.83 364.09 172.83 347.5 143.16 338.22 126.58 337.83 125.87 305.66 68.35 290.37 41.03 296.3 27.21 310.53 27.21 317.76 40.13 363.35 121.65 372.78 138.51 391.97 172.83"/>
      </g>
      <path id="W" class="st0" d="M285.56,27.21l-53.88,119.62-11.65,25.86-11.65-25.86-30.59-67.93-30.59,67.93-11.65,25.86-11.65-25.86L70.03,27.21h23.29l42.23,93.76,30.59-67.93,11.63-25.83h.03l11.63,25.83,30.59,67.93,42.23-93.76h23.3Z"/>
      <rect id="I" class="st0" x="27.4" y="27.19" width="21.24" height="145.56"/>
      <path id="R" class="st0" d="M6.01,172.79h-24.9l-42.48-68.62-1.16-1.88c-.09.02-.17.05-.26.07-.38.1-.76.21-1.14.3-.13.04-.25.07-.38.1-.55.14-1.1.27-1.65.39-1.26.29-2.53.54-3.81.75-.36.06-.72.13-1.09.17-.19.03-.39.06-.58.09-.47.07-.95.14-1.42.2-.21.03-.41.06-.62.08-.5.06-1.01.12-1.52.17-.61.06-1.23.12-1.85.16-.01,0-.04,0-.06,0-.57.04-1.14.08-1.71.1-.1,0-.2.01-.31.01-.41.02-.83.03-1.25.05-.26,0-.52.01-.78.02-.51,0-1.01.01-1.52.01h-27.4v67.81h-21.26V27.17H-8.89c.12,1.7.18,3.41.18,5.13,0,5.43-.6,10.72-1.76,15.81-3.13,13.89-10.28,26.28-20.2,35.92-.92.89-1.86,1.77-2.83,2.61-.33.29-.65.57-.98.84-.04.03-.08.07-.12.1-.43.36-.86.7-1.29,1.05-.3.25-.62.5-.93.74-.22.17-.45.34-.67.51-.82.62-1.64,1.22-2.49,1.81-.4.28-.79.54-1.2.82-.02.01-.04.03-.07.04-.37.25-.74.5-1.13.73-.06.04-.12.08-.18.12-.14.09-.28.17-.42.26l2.56,4.13L6.01,172.79ZM-45.61,69.13c6.09-5.92,10.57-13.11,13.14-21.01h-77.42v35.92h27.4c7.29,0,14.36-1.45,20.86-4.22,5.9-2.51,11.32-6.11,16.02-10.68Z"/>
    </g>
  </g>
  <path class="st1" d="M139.31,60.69v78.62H60.69V60.69h78.62V4.02H59.49c0,30.64-24.84,55.47-55.47,55.47v81.01c30.64,0,55.47,24.84,55.47,55.47h81.01c0-30.64,24.84-55.47,55.47-55.47V60.69h-56.68Z"/>
</svg>