<?xml version="1.0" encoding="UTF-8"?>
<svg id="Layer_1" xmlns="http://www.w3.org/2000/svg" baseProfile="tiny" version="1.2" viewBox="0 0 127 24">
  <!-- Generator: Adobe Illustrator 29.3.1, SVG Export Plug-In . SVG Version: 2.1.0 Build 151)  -->
  <path d="M1,19.7V4.9h6.6c1,0,1.9.2,2.7.6.8.4,1.4,1,1.9,1.8.5.8.7,1.6.7,2.7s-.2,1.9-.7,2.6c-.5.8-1.1,1.3-1.8,1.8l1.4,2.4c0,0,.1.2.2.2,0,0,.2,0,.3,0h1.4v2.7h-1.9c-.6,0-1.1-.1-1.6-.4-.5-.3-.9-.7-1.2-1.2l-1.7-3h-3.3v4.6H1ZM4,12.5h3.2c.5,0,.9,0,1.3-.3.4-.2.7-.5.9-.8.2-.4.3-.8.3-1.3s-.1-.9-.4-1.3c-.2-.4-.6-.6-.9-.8-.4-.2-.8-.3-1.3-.3h-3.2v4.9Z" fill="#fff"/>
  <path d="M16.8,7.7c-.5,0-.9-.2-1.3-.5-.4-.4-.5-.8-.5-1.3s.2-.9.5-1.3c.4-.4.8-.5,1.3-.5s.9.2,1.3.5c.4.4.5.8.5,1.3s-.2.9-.5,1.3c-.4.4-.8.5-1.3.5ZM15.3,19.7v-10.8h2.9v10.8h-2.9Z" fill="#fff"/>
  <path d="M25,20c-.7,0-1.4-.1-2-.4-.6-.3-1.1-.7-1.4-1.3-.4-.6-.5-1.3-.5-2.2v-7h2.9v7.5c0,.2,0,.4.1.5,0,.2.2.3.4.4.2,0,.4.1.5.1s.4,0,.5-.1c.2,0,.3-.2.4-.4,0-.2.1-.4.1-.5v-3.7c0-.8.2-1.6.5-2.2.3-.6.8-1,1.4-1.4.6-.3,1.3-.5,2.1-.5s1.5.2,2.1.5c.6.3,1.1.8,1.4,1.4.3.6.5,1.3.5,2.2v3.7c0,.2,0,.4.1.5,0,.2.2.3.4.4.2,0,.4.1.5.1s.4,0,.6-.1c.2,0,.3-.2.4-.4,0-.2.1-.4.1-.5v-7.5h2.9v7c0,.9-.2,1.6-.5,2.2-.4.6-.8,1-1.4,1.3-.6.3-1.3.4-2,.4s-1.4-.1-2-.4c-.6-.3-1.1-.7-1.5-1.3-.4-.6-.5-1.3-.5-2.2v-3.7c0-.2,0-.4-.1-.6,0-.2-.2-.3-.4-.4-.2,0-.3-.1-.6-.1s-.4,0-.5.1c-.2,0-.3.2-.4.4,0,.2-.1.3-.1.6v3.7c0,.9-.2,1.6-.5,2.2-.4.6-.8,1-1.4,1.3-.6.3-1.3.4-2,.4Z" fill="#fff"/>
  <path d="M46.1,20c-1,0-1.8-.3-2.6-.8-.7-.5-1.3-1.2-1.7-2-.4-.9-.6-1.8-.6-2.8s.2-2,.7-2.9c.5-.9,1.1-1.5,2-2,.9-.5,1.9-.7,3.1-.7s2.2.3,3.1.8c.8.5,1.5,1.2,1.9,2,.4.9.7,1.8.7,2.9v5.4h-2.9v-1.8h0c-.2.4-.5.7-.8,1-.3.3-.7.6-1.2.7-.5.2-1,.3-1.6.3ZM46.9,17.5c.6,0,1-.1,1.5-.4.4-.3.7-.7.9-1.2.2-.5.3-1,.3-1.6s-.1-1.1-.3-1.6c-.2-.5-.5-.8-.9-1.1-.4-.3-.9-.4-1.5-.4s-1.1.1-1.5.4c-.4.3-.7.7-1,1.1-.2.5-.3,1-.3,1.6s.1,1.1.3,1.6c.2.5.5.9,1,1.2.4.3.9.4,1.5.4Z" fill="#fff"/>
  <path d="M64.4,20c-.8,0-1.5-.2-2.1-.5-.6-.3-1.1-.8-1.4-1.4-.3-.6-.5-1.3-.5-2.1v-3.7c0-.2,0-.4-.1-.6,0-.2-.2-.3-.4-.4-.2,0-.4-.1-.5-.1s-.4,0-.5.1c-.2,0-.3.2-.4.4,0,.2-.1.3-.1.6v7.5h-2.9v-7c0-.9.2-1.7.5-2.2.4-.6.8-1,1.4-1.3.6-.3,1.3-.4,2-.4s1.4.1,2,.4c.6.3,1.1.7,1.4,1.3.4.6.5,1.3.5,2.2v3.7c0,.2,0,.4.1.5,0,.2.2.3.4.4.2,0,.4.1.5.1s.4,0,.6-.1c.2,0,.3-.2.4-.4,0-.2.1-.4.1-.5v-3.7c0-.9.2-1.7.5-2.2.4-.6.9-1,1.5-1.3.6-.3,1.3-.4,2-.4s1.4.1,2,.4c.6.3,1.1.7,1.4,1.3.4.6.5,1.3.5,2.2v7h-2.9v-7.5c0-.2,0-.4-.1-.6,0-.2-.2-.3-.4-.4-.2,0-.3-.1-.6-.1s-.4,0-.5.1c-.2,0-.3.2-.4.4,0,.2-.1.3-.1.6v3.7c0,.8-.2,1.5-.5,2.1-.3.6-.8,1.1-1.4,1.4-.6.3-1.3.5-2.1.5Z" fill="#fff"/>
  <path d="M88,20c-1.2,0-2.3-.2-3.2-.7-.9-.5-1.6-1.2-2.2-2.1-.5-.9-.8-2-.8-3.2V4.9h3v9.1c0,.6.1,1.1.4,1.6.3.5.6.9,1.1,1.2.5.3,1,.4,1.7.4s1.2-.1,1.7-.4c.5-.3.8-.7,1.1-1.2.3-.5.4-1,.4-1.6V4.9h3v9c0,1.3-.3,2.3-.8,3.2-.5.9-1.3,1.6-2.2,2.1-.9.5-2,.7-3.2.7Z" fill="#fff"/>
  <path d="M96.9,19.7v-2.5h5.3c.2,0,.3,0,.5-.1.1,0,.2-.2.3-.3,0-.1.1-.3.1-.4s0-.3-.1-.4c0-.1-.2-.2-.3-.3-.1,0-.3-.1-.5-.1h-2c-.7,0-1.3-.1-1.9-.3-.6-.2-1-.6-1.3-1.1-.3-.5-.5-1.1-.5-1.9s.2-1.2.5-1.7c.3-.5.7-.9,1.2-1.2.5-.3,1.1-.5,1.7-.5h5v2.5h-4.8c-.2,0-.4,0-.6.2-.2.1-.2.3-.2.5s0,.4.2.6c.2.1.3.2.6.2h2c.8,0,1.4.1,2,.3.6.2,1,.6,1.3,1.1.3.5.5,1.1.5,1.9s-.2,1.2-.5,1.7c-.3.5-.7.9-1.2,1.2-.5.3-1.1.5-1.8.5h-5.5Z" fill="#fff"/>
  <path d="M113.6,19.7c-1.2,0-2.3-.2-3.2-.7-.9-.5-1.6-1.1-2.1-1.9-.5-.8-.8-1.7-.8-2.7s.2-2.1.7-3c.5-.8,1.1-1.5,1.9-2s1.7-.7,2.7-.7,2.2.3,2.9.8c.8.5,1.3,1.2,1.7,2,.4.9.5,1.8.5,2.8s0,.3,0,.5c0,.2,0,.3,0,.4h-7.3c.1.4.3.8.6,1.1.3.3.6.5,1,.7.4.1.9.2,1.4.2h3v2.5h-3ZM110.6,13.3h4.5c0-.3,0-.5-.1-.7,0-.2-.2-.4-.3-.6-.1-.2-.3-.3-.4-.5-.2-.1-.4-.2-.6-.3-.2,0-.5-.1-.7-.1s-.7,0-.9.2c-.3.1-.5.3-.7.5-.2.2-.3.5-.4.7-.1.3-.2.5-.2.8Z" fill="#fff"/>
  <path d="M120,19.7v-7.7c0-1,.3-1.7.8-2.2.5-.5,1.3-.8,2.2-.8h3v2.5h-2.5c-.2,0-.3,0-.5.2-.1.1-.2.3-.2.5v7.6h-2.9Z" fill="#fff"/>
</svg>