<?xml version="1.0" encoding="UTF-8"?>
<svg id="Layer_1" xmlns="http://www.w3.org/2000/svg" baseProfile="tiny" version="1.2" viewBox="0 0 400 65">
  <!-- Generator: Adobe Illustrator 29.3.1, SVG Export Plug-In . SVG Version: 2.1.0 Build 151)  -->
  <path d="M5,56.6V10.5h20.6c3,0,5.8.7,8.3,2,2.5,1.3,4.5,3.2,5.9,5.6,1.5,2.4,2.2,5.1,2.2,8.3s-.7,5.8-2.2,8.1-3.4,4.2-5.7,5.6l4.2,7.4c.2.3.4.5.7.6.3.2.6.3.9.3h4.5v8.3h-5.9c-1.8,0-3.5-.5-5-1.4-1.5-.9-2.7-2.1-3.6-3.6l-5.2-9.3h-10.2v14.4H5v-.2ZM14.4,33.9h10.1c1.5,0,2.8-.3,4.1-.9,1.2-.6,2.2-1.5,2.9-2.6.7-1.1,1.1-2.5,1.1-4.1s-.4-2.9-1.1-4.1-1.7-2-2.9-2.6c-1.2-.6-2.5-.9-4.1-.9h-10.1v15.2h0Z" fill="#231f20"/>
  <path d="M54.2,18.9c-1.5,0-2.8-.6-4-1.7-1.1-1.1-1.7-2.4-1.7-4s.6-2.8,1.7-4c1.1-1.1,2.4-1.7,4-1.7s2.8.6,4,1.7c1.1,1.1,1.7,2.4,1.7,4s-.6,2.8-1.7,4c-1.1,1.1-2.4,1.7-4,1.7ZM49.7,56.6V23h9.1v33.6s-9.1,0-9.1,0Z" fill="#231f20"/>
  <path d="M79.7,57.4c-2.3,0-4.4-.5-6.2-1.4-1.9-.9-3.4-2.3-4.5-4.1-1.1-1.8-1.7-4.2-1.7-7v-21.9h9v23.3c0,.6.2,1.2.5,1.7.3.5.7,1,1.3,1.3.5.3,1.1.5,1.7.5s1.2-.2,1.7-.5c.5-.3,1-.7,1.3-1.3.3-.5.5-1.1.5-1.7v-11.6c0-2.6.5-4.9,1.6-6.7,1-1.8,2.5-3.2,4.4-4.3,1.9-1,4.1-1.5,6.5-1.5s4.7.5,6.5,1.5,3.3,2.4,4.4,4.3c1,1.8,1.6,4.1,1.6,6.7v11.6c0,.6.2,1.2.5,1.7.3.5.7,1,1.3,1.3.5.3,1.1.5,1.7.5s1.2-.2,1.7-.5.9-.7,1.2-1.3c.3-.5.5-1.1.5-1.7v-23.3h9v21.9c0,2.8-.6,5.1-1.7,7-1.1,1.8-2.6,3.2-4.5,4.1-1.9.9-4,1.4-6.2,1.4s-4.3-.5-6.2-1.4c-1.9-.9-3.4-2.3-4.6-4.1s-1.7-4.2-1.7-7v-11.6c0-.7-.2-1.2-.5-1.7-.3-.5-.7-.9-1.2-1.2-.5-.3-1.1-.5-1.7-.5s-1.2.2-1.7.5c-.5.3-1,.7-1.3,1.2s-.5,1.1-.5,1.7v11.6c0,2.8-.6,5.1-1.7,7-1.2,1.8-2.6,3.2-4.5,4.1-1.9.9-4,1.4-6.2,1.4h-.1Z" fill="#231f20"/>
  <path d="M145.8,57.4c-3.1,0-5.7-.8-8-2.4s-4.1-3.7-5.3-6.3c-1.3-2.6-1.9-5.6-1.9-8.8s.7-6.3,2.1-9,3.5-4.8,6.1-6.3c2.7-1.6,5.9-2.3,9.6-2.3s7,.8,9.5,2.4c2.6,1.6,4.6,3.7,5.9,6.4,1.4,2.7,2,5.6,2,8.9v16.8h-9v-5.6h-.2c-.7,1.2-1.5,2.3-2.5,3.2-1,1-2.2,1.7-3.6,2.3-1.4.6-3.1.9-5,.9h0ZM148.3,49.7c1.8,0,3.2-.5,4.6-1.3,1.3-.9,2.2-2.1,2.9-3.6.7-1.5,1-3.2,1-5s-.4-3.5-1-5-1.7-2.6-2.9-3.5c-1.3-.9-2.8-1.3-4.6-1.3s-3.4.5-4.7,1.3-2.3,2-2.9,3.5-1,3.1-1,5,.4,3.5,1,5,1.7,2.7,2.9,3.6c1.3.9,2.8,1.3,4.7,1.3Z" fill="#231f20"/>
  <path d="M202.9,57.4c-2.5,0-4.7-.5-6.5-1.5-1.9-1-3.3-2.4-4.4-4.3-1-1.9-1.6-4.1-1.6-6.7v-11.6c0-.7-.2-1.2-.5-1.7s-.7-.9-1.3-1.2c-.5-.3-1.1-.5-1.7-.5s-1.2.2-1.7.5c-.5.3-1,.7-1.3,1.2s-.5,1.1-.5,1.7v23.3h-9v-21.9c0-2.8.6-5.2,1.7-7,1.1-1.8,2.6-3.2,4.5-4.1,1.9-.9,4-1.4,6.2-1.4s4.4.5,6.2,1.4c1.9.9,3.4,2.3,4.5,4.1,1.1,1.8,1.7,4.2,1.7,7v11.6c0,.6.2,1.2.5,1.7.3.5.7,1,1.3,1.3.5.3,1.1.5,1.7.5s1.2-.2,1.7-.5.9-.7,1.2-1.3c.3-.5.5-1.1.5-1.7v-11.6c0-2.8.6-5.2,1.7-7,1.1-1.8,2.6-3.2,4.6-4.1,1.9-.9,4-1.4,6.2-1.4s4.4.5,6.2,1.4c1.9.9,3.4,2.3,4.5,4.1,1.1,1.8,1.7,4.2,1.7,7v21.9h-9v-23.3c0-.7-.2-1.2-.5-1.7s-.7-.9-1.2-1.2c-.5-.3-1.1-.5-1.7-.5s-1.2.2-1.7.5c-.5.3-1,.7-1.3,1.2s-.5,1.1-.5,1.7v11.6c0,2.6-.5,4.8-1.6,6.7-1,1.9-2.5,3.3-4.4,4.3s-4.1,1.5-6.5,1.5h.1Z" fill="#231f20"/>
  <path d="M276.5,57.4c-3.8,0-7.1-.8-9.9-2.3-2.9-1.5-5.1-3.7-6.8-6.5-1.6-2.8-2.5-6.2-2.5-10.1V10.5h9.4v28.5c0,1.8.4,3.5,1.2,5,.8,1.5,1.9,2.7,3.4,3.7,1.5.9,3.2,1.4,5.2,1.4s3.8-.5,5.2-1.4c1.5-.9,2.6-2.1,3.4-3.7.8-1.5,1.2-3.2,1.2-5V10.5h9.4v27.9c0,3.9-.8,7.3-2.5,10.1-1.6,2.8-3.9,5-6.8,6.5s-6.2,2.3-9.9,2.3h0Z" fill="#231f20"/>
  <path d="M304.3,56.6v-7.7h16.4c.5,0,1-.1,1.4-.3s.8-.5,1-.9c.3-.4.4-.8.4-1.3s-.1-1-.4-1.4c-.3-.4-.6-.7-1-1-.4-.3-.9-.4-1.4-.4h-6.3c-2.1,0-4.1-.4-5.8-1s-3.1-1.8-4.2-3.3c-1-1.5-1.5-3.5-1.5-5.9s.5-3.6,1.4-5.2c1-1.6,2.2-2.8,3.8-3.8,1.6-1,3.4-1.4,5.3-1.4h15.7v7.7h-14.9c-.7,0-1.2.2-1.7.7-.5.5-.8,1-.8,1.7s.3,1.3.7,1.7c.5.5,1.1.7,1.8.7h6.3c2.4,0,4.5.4,6.2,1.1,1.8.7,3.1,1.9,4.1,3.4s1.5,3.6,1.5,6-.5,3.7-1.5,5.3c-1,1.6-2.3,2.9-3.9,3.8-1.6,1-3.5,1.4-5.5,1.4h-17.3.1Z" fill="#231f20"/>
  <path d="M356.4,56.6c-3.8,0-7.2-.7-10-2.2-2.8-1.5-5-3.5-6.6-6s-2.3-5.4-2.3-8.6.7-6.7,2.2-9.3c1.5-2.6,3.4-4.7,5.9-6.1s5.3-2.2,8.5-2.2,6.9.8,9.2,2.4c2.3,1.6,4.1,3.7,5.2,6.3,1.1,2.6,1.6,5.6,1.6,8.9s0,1,0,1.6c0,.6-.1,1.1-.2,1.4h-22.7c.4,1.4,1,2.5,1.8,3.4.9.9,1.9,1.6,3.2,2.1,1.3.5,2.7.7,4.4.7h9.3v7.7h-9.5,0ZM347,36.6h14c-.1-.8-.3-1.6-.5-2.3s-.5-1.4-.9-1.9c-.4-.6-.9-1.1-1.4-1.5-.5-.4-1.2-.7-1.8-.9-.7-.2-1.5-.3-2.3-.3s-2.1.2-2.9.6-1.6.9-2.1,1.6c-.6.7-1,1.4-1.4,2.2-.3.8-.6,1.7-.7,2.6h0Z" fill="#231f20"/>
  <path d="M376.2,56.6v-24.1c0-3,.9-5.3,2.5-7s4-2.5,7-2.5h9.3v7.7h-7.7c-.6,0-1.1.2-1.5.6-.4.4-.6.9-.6,1.5v23.8h-9,0Z" fill="#231f20"/>
</svg>