<?xml version="1.0" encoding="UTF-8"?>
<svg id="Layer_1" xmlns="http://www.w3.org/2000/svg" version="1.1" viewBox="0 0 800 800">
  <!-- Generator: Adobe Illustrator 29.4.0, SVG Export Plug-In . SVG Version: 2.1.0 Build 152)  -->
  <defs>
    <style>
      .st0 {
        fill: #fff;
      }
    </style>
  </defs>
  <path class="st0" d="M738.1,285.7l-299.2-117.9c-13.4-5.8-29.5-7.3-38.9-7.3s-25.5,1.5-38.9,7.3L61.9,285.7c-28.2,11.6-30.9,32-30.9,40.8s2.7,29.1,30.9,40.8l13.4,4.4v120.8c0,17.5,12.1,30.6,28.2,30.6s28.2-13.1,28.2-30.6v-99l52.3,20.4v136.9c0,59.7,128.8,88.8,216,88.8s216-27.7,216-88.8v-135.4l122.1-48c28.2-10.2,30.9-32,30.9-40.8s-2.7-29.1-30.9-40.8h0ZM561,543.4c-16.1,11.6-76.5,34.9-159.7,34.9s-144.9-23.3-159.7-34.9v-106.3l120.8,48c13.4,5.8,29.5,7.3,38.9,7.3s25.5-1.5,38.9-7.3l120.8-48v106.3h0ZM420.1,426.9c-9.4,4.4-29.5,4.4-38.9,0l-256.3-100.5,254.9-100.5c9.4-4.4,29.5-4.4,38.9,0l256.3,100.5-254.9,100.5Z"/>
</svg>