<?xml version="1.0" encoding="UTF-8"?>
<svg id="Layer_1" xmlns="http://www.w3.org/2000/svg" version="1.1" viewBox="0 0 800 800">
  <!-- Generator: Adobe Illustrator 29.4.0, SVG Export Plug-In . SVG Version: 2.1.0 Build 152)  -->
  <defs>
    <style>
      .st0 {
        stroke-linejoin: round;
      }

      .st0, .st1 {
        fill: none;
        stroke: #fff;
        stroke-linecap: round;
        stroke-width: 66.7px;
      }

      .st1 {
        stroke-miterlimit: 133.3;
      }
    </style>
  </defs>
  <path class="st1" d="M483.3,650h-166.7M483.3,650c0-23.8,0-35.7,1.3-43.6,4.1-25.4,4.8-27.1,21-47.1,5-6.2,23.7-22.9,61.1-56.4,51.1-45.8,83.3-112.3,83.3-186.3s-5-57.3-14.2-83.3M483.3,650c0,31.2,0,46.7-6.7,58.3-4.4,7.6-10.7,13.9-18.3,18.3-11.6,6.7-27.2,6.7-58.3,6.7s-46.7,0-58.3-6.7c-7.6-4.4-13.9-10.7-18.3-18.3-6.7-11.6-6.7-27.2-6.7-58.3M316.7,650c0-23.8,0-35.7-1.3-43.6-4.1-25.4-4.8-27.1-21-47.1-5-6.2-23.7-22.9-61.1-56.4-51.1-45.8-83.3-112.3-83.3-186.3,0-138.1,111.9-250,250-250s88.1,12.1,124.8,33.3"/>
  <path class="st0" d="M426.2,283.3l-71.4,100h100l-71.4,100"/>
</svg>