<?xml version="1.0" encoding="UTF-8"?>
<svg id="Layer_1" xmlns="http://www.w3.org/2000/svg" version="1.1" viewBox="0 0 800 800">
  <!-- Generator: Adobe Illustrator 29.4.0, SVG Export Plug-In . SVG Version: 2.1.0 Build 152)  -->
  <defs>
    <style>
      .st0 {
        fill: #0059ff;
      }
    </style>
  </defs>
  <path class="st0" d="M406.2,709.7c4.5-5,8.4-10.3,12-15.6,1.4-1.7,2.5-3.5,3.7-5.3,2.3-3.5,4.6-7.3,6.9-11,1.2-2.1,2.4-4.2,3.5-6.4,1.9-3.7,3.7-7.1,5.2-10.7,1.2-2.3,2-4.6,3.1-6.9,1.5-3.7,3-7.4,4.2-11.1.8-2.2,1.5-4.4,2.2-6.7,1.6-4.5,2.7-9,3.8-13.7.3-1.5.7-2.9,1.1-4.4,1.1-5.9,2.1-12,2.7-18,.4-2.2.5-4.4.6-6.7.3-3.9.7-7.7.7-11.8.2-2.6,0-5.1.1-7.9,0-3.5-.1-7.2-.3-10.7-.2-2.6-.4-5.4-.6-8.2,0-.7-.2-1.4-.3-2.2-34.5,27.3-70.6,50.4-107.8,67.9l-1.2.6c4.3,12.6,7.6,25.6,9.5,38.8.3.6.3,1.3.3,1.8,1.1,7.5,1.7,15.2,1.7,22.8.1.6,0,1.5,0,2.1.1,7.2-.2,14.4-.8,21.4,0,.6-.1,1.5-.2,2.1-.7,7.2-1.9,14.4-3.4,21.5-.2,1.4-.7,3.1-1,4.4-1.6,7-3.5,14.2-5.9,21.2,22.3-11.4,42.9-27.3,60.3-47.4Z"/>
  <path class="st0" d="M525.4,449.5c43.8-50.6,77.7-104.8,100.8-158,.4.5,7.9-19.3,7.9-19.3,12.1-31.4,20.5-62.3,24.9-91.8,0-.3.2-.6.1-.7.9-6.8,1.7-13.5,2.2-20.1,0-.6.2-1.4.2-2.1.7-6.2.9-12,.9-18.1v-3.4c.2-5.6,0-11.1-.3-16.4,0-1.4,0-2.7-.1-4.1-.5-6.6-1-13.2-2.1-19.7-.9,0-1.9.2-2.7.2h0c-25.8,0-53.4,4.5-81.5,12.9-28.3,8.5-57.3,21-86.5,37.1h0c0,0-.3.2-.3.2l-16.1,9.5c-50,30.4-99.5,71.9-143.9,122.9-24.1,27.6-45.1,56.3-63,85.2-25.2,41-44,82.5-56.4,122.6-2.3,7.4-4.7,15-6.5,22.2,3.4,1.5,6.5,3.2,9.8,4.8l-18.2,20.4,14.6,13c-19.4,3.5-74.8,25.7-78.1,148.6l-.3.3s0,0,.2,0v.2s.3-.3.3-.3c131.8-18.6,137.2-81.9,136.9-96.1l17.6,15.7,20.3-22.7c3.3,4.5,6.5,9.1,9.3,13.8,7-2.8,13.8-6.2,20.9-9.4,38.1-18,76.7-42.5,113.9-73.2,26.1-21.8,51.5-46.6,75.6-74.2ZM169.3,651.6s9.7-84.9,55.2-90.9l29.9,26.7-3-2.5c.4,8.7-1.5,55.9-82.1,66.7ZM469.5,316.1l-.6-.5c-23.5-21-26.1-56.8-5.9-80.2,10-11.4,23.9-18.3,39.2-19.1,15.2-.9,30,4.2,41.6,14.2l.7.6c23.3,20.8,26,56.9,5.7,80.2-20.4,23.6-56.7,25.7-80.8,4.8Z"/>
  <path class="st0" d="M184.8,478.7c12.1-39.2,29.7-78,51.8-115.9-55.5,1.8-109.7,25.2-148.8,70.1-17.2,20.1-30.1,42.6-38.5,66.3,41.5-21.4,89.1-27.7,134.9-18.9.1-.6.3-1.1.6-1.6Z"/>
</svg>