<?xml version="1.0" encoding="UTF-8"?>
<svg id="Layer_1" xmlns="http://www.w3.org/2000/svg" version="1.1" viewBox="0 0 800 800">
  <!-- Generator: Adobe Illustrator 29.4.0, SVG Export Plug-In . SVG Version: 2.1.0 Build 152)  -->
  <defs>
    <style>
      .st0 {
        fill: none;
        stroke: #fff;
        stroke-linecap: round;
        stroke-linejoin: round;
        stroke-width: 66.7px;
      }
    </style>
  </defs>
  <path class="st0" d="M433.3,666.7v-66.7c0-92-74.6-166.7-166.7-166.7s-166.7,74.6-166.7,166.7v66.7h333.3ZM433.3,666.7h266.7v-33.3c0-98.2-74.6-166.7-166.7-166.7s-89.7,20.8-120,54.4M366.7,233.3c0,55.2-44.8,100-100,100s-100-44.8-100-100,44.8-100,100-100,100,44.8,100,100ZM600,300c0,36.8-29.8,66.7-66.7,66.7s-66.7-29.8-66.7-66.7,29.8-66.7,66.7-66.7,66.7,29.8,66.7,66.7Z"/>
</svg>