<?xml version="1.0" encoding="UTF-8"?>
<svg id="Layer_1" xmlns="http://www.w3.org/2000/svg" version="1.1" viewBox="0 0 800 800">
  <!-- Generator: Adobe Illustrator 29.4.0, SVG Export Plug-In . SVG Version: 2.1.0 Build 152)  -->
  <defs>
    <style>
      .st0 {
        fill: #fff;
      }
    </style>
  </defs>
  <path class="st0" d="M400.8,0C180.2,0,.8,179.4.8,400s179.4,400,400,400,400-179.4,400-400S621.3,0,400.8,0h0ZM49,423.5h138.2c2.1,48.2,9.9,95.6,24.1,141.2h-122.5c-22.6-42.6-36.5-90.5-39.9-141.2h0ZM187.2,376.5H49c3.3-50.7,17.2-98.5,39.9-141.2h122.4c-14.2,45.6-22,93-24,141.2ZM261,235.3h277.5c15.5,45.4,24.6,92.8,26.8,141.2H234.3c2.2-48.4,11.2-95.8,26.8-141.2ZM234.3,423.5h331.1c-2.3,48.4-11.3,95.8-26.9,141.2h-277.2c-15.6-45.4-24.7-92.8-26.9-141.2ZM612.4,423.5h140.1c-3.3,50.7-17.2,98.5-39.9,141.2h-124.4c14.2-45.6,22.1-93,24.1-141.2h0ZM612.4,376.5c-2-48.2-9.8-95.6-24-141.2h124.3c22.6,42.6,36.5,90.5,39.9,141.2h-140.1ZM682.4,188.2h-110.8c-18.4-44.9-43.1-87.4-72.9-127.1,74.3,21.5,138.3,66.8,183.7,127.1ZM427,48.4c38.8,42.2,69.8,89.4,92.8,139.9h-240.1c22.9-50.4,53.9-97.6,92.7-139.8,9.4-.7,18.7-1.4,28.3-1.4s17.6.7,26.3,1.3ZM300.4,61.8c-29.6,39.4-54.2,81.7-72.5,126.4h-108.9c44.9-59.6,108.1-104.7,181.4-126.4h0ZM119,611.8h109c18.4,44.8,43.1,87.1,72.8,126.5-73.5-21.7-136.8-66.8-181.8-126.5h0ZM373,751.5c-38.9-42.2-70-89.4-93.1-139.8h239.7c-23.1,50.4-54.2,97.6-93.1,139.9-8.5.6-17.1,1.3-25.7,1.3s-18.6-.7-27.8-1.4h0ZM498.2,739c29.9-39.6,54.8-82.2,73.3-127.2h111c-45.6,60.4-109.7,105.7-184.2,127.2Z"/>
</svg>